<svg width="300" height="300" viewBox="0 0 300 300" fill="none" xmlns="http://www.w3.org/2000/svg">
<mask id="path-1-outside-1" maskUnits="userSpaceOnUse" x="9.00427" y="47.4968" width="282" height="205" fill="black">
<rect fill="white" x="9.00427" y="47.4968" width="282" height="205"/>
<path d="M85.015 106.806C86.275 102.526 87.534 104.834 87.534 104.834C87.684 105.644 87.614 107.106 87.614 107.106C87.544 108.568 87.298 112.136 87.298 112.136C87.052 115.704 87.008 119.857 87.008 119.857C86.965 124.011 86.925 128.994 86.925 128.994C86.886 133.978 86.839 138.934 86.839 138.934C86.792 143.891 86.644 149.077 86.644 149.077C86.496 154.263 86.342 158.904 86.342 158.904C86.188 163.545 85.998 167.618 85.998 167.618C85.809 171.692 85.66 175.368 85.66 175.368C85.512 179.045 85.361 182.365 85.361 182.365C85.21 185.685 85.173 188.487 85.173 188.487C85.136 191.289 85.185 193.342 85.185 193.342C85.234 195.395 85.019 196.515 85.019 196.515C84.804 197.635 83.524 196.777 83.524 196.777C82.244 195.92 82.572 192.751 82.572 192.751C82.9 189.583 82.968 183.76 82.968 183.76C83.036 177.937 83.069 170.822 83.069 170.822C83.102 163.707 83.118 155.996 83.118 155.996C83.134 148.285 83.138 140.377 83.138 140.377C83.143 132.469 83.136 124.84 83.136 124.84C83.129 117.211 83.097 110.666 83.097 110.666C83.065 104.121 82.979 99.452 82.979 99.452C82.894 94.783 82.712 92.064 82.712 92.064C82.53 89.345 84.21 89.111 84.21 89.111C85.89 88.877 86.141 91.74 86.141 91.74C86.392 94.602 87.374 99.197 87.374 99.197C88.357 103.792 89.917 108.279 89.917 108.279C91.478 112.766 93.51 116.9 93.51 116.9C95.542 121.034 98.009 124.319 98.009 124.319C100.476 127.605 103.342 130.189 103.342 130.189C106.208 132.773 109.211 134.378 109.211 134.378C112.213 135.983 115.151 136.552 115.151 136.552C118.089 137.12 120.796 136.657 120.796 136.657C123.504 136.193 126.049 134.527 126.049 134.527C128.594 132.861 130.839 129.947 130.839 129.947C133.084 127.033 134.71 123.155 134.71 123.155C136.336 119.277 137.29 115.004 137.29 115.004C138.243 110.731 138.692 106.1 138.692 106.1C139.141 101.47 139.332 97.103 139.332 97.103C139.523 92.736 139.547 89.2 139.547 89.2C139.572 85.663 139.535 83.456 139.535 83.456C139.499 81.249 141.292 81.403 141.292 81.403C143.085 81.558 143.155 85.032 143.155 85.032C143.225 88.506 143.84 94.3 143.84 94.3C144.455 100.094 145.226 106.988 145.226 106.988C145.997 113.883 146.831 121.269 146.831 121.269C147.665 128.655 148.42 136.436 148.42 136.436C149.176 144.216 149.931 152.321 149.931 152.321C150.687 160.425 151.538 168.826 151.538 168.826C152.389 177.227 153.339 185.473 153.339 185.473C154.289 193.72 155.256 201.39 155.256 201.39C156.223 209.061 157.074 215.55 157.074 215.55C157.925 222.039 158.696 227.227 158.696 227.227C159.467 232.415 160.144 236.734 160.144 236.734C160.821 241.053 161.422 244.162 161.422 244.162C162.024 247.27 162.495 248.926 162.495 248.926C162.066 253.659 160.403 250.413 160.403 250.413C160.313 248.497 159.899 245.247 159.899 245.247C159.485 241.996 158.904 237.603 158.904 237.603C158.323 233.21 157.654 227.946 157.654 227.946C156.985 222.682 156.2 216.145 156.2 216.145C155.415 209.608 154.474 201.918 154.474 201.918C153.533 194.229 152.588 185.973 152.588 185.973C151.643 177.718 150.778 169.321 150.778 169.321C149.913 160.925 149.142 152.829 149.142 152.829C148.371 144.733 147.596 136.971 147.596 136.971C146.822 129.209 145.959 121.846 145.959 121.846C145.097 114.483 144.242 107.65 144.242 107.65C143.387 100.817 142.426 95.28 142.426 95.28C141.465 89.743 140.489 87.087 140.489 87.087C139.514 84.431 140.663 83.783 140.663 83.783C141.812 83.135 141.504 84.867 141.504 84.867C141.196 86.599 141.038 90.062 141.038 90.062C140.88 93.525 140.649 97.887 140.649 97.887C140.418 102.249 139.994 106.952 139.994 106.952C139.57 111.655 138.612 116.044 138.612 116.044C137.654 120.433 136.034 124.511 136.034 124.511C134.414 128.589 132.109 131.815 132.109 131.815C129.804 135.041 126.995 136.986 126.995 136.986C124.187 138.931 121.1 139.393 121.1 139.393C118.013 139.855 114.824 139.119 114.824 139.119C111.635 138.383 108.484 136.58 108.484 136.58C105.333 134.777 102.381 132.047 102.381 132.047C99.429 129.317 96.931 125.856 96.931 125.856C94.433 122.394 92.373 118.164 92.373 118.164C90.313 113.934 88.711 109.4 88.711 109.4C87.109 104.866 85.758 100.543 85.758 100.543C84.407 96.22 83.32 94.17 83.32 94.17C82.233 92.12 83.392 91.365 83.392 91.365C84.551 90.61 84.369 93.046 84.369 93.046C84.187 95.482 84.102 100.062 84.102 100.062C84.017 104.643 83.984 111.151 83.984 111.151C83.952 117.66 83.945 125.281 83.945 125.281C83.938 132.902 83.943 140.816 83.943 140.816C83.948 148.729 83.963 156.458 83.963 156.458C83.979 164.187 84.029 171.343 84.029 171.343C84.079 178.499 84.326 184.482 84.326 184.482C84.573 190.464 85.084 194.03 85.084 194.03C85.595 197.596 84.481 198.365 84.481 198.365C83.367 199.134 83.152 197.884 83.152 197.884C82.937 196.634 83.086 194.455 83.086 194.455C83.235 192.276 83.38 189.403 83.38 189.403C83.525 186.53 83.739 183.172 83.739 183.172C83.953 179.815 84.163 176.107 84.163 176.107C84.373 172.399 84.635 168.292 84.635 168.292C84.897 164.184 85.108 159.525 85.108 159.525C85.319 154.866 85.443 149.7 85.443 149.7C85.567 144.534 85.613 139.588 85.613 139.588C85.659 134.641 85.62 129.734 85.62 129.734C85.581 124.827 85.537 120.763 85.537 120.763C85.494 116.699 85.247 113.516 85.247 113.516C85.001 110.333 84.931 109.051 84.931 109.051C84.865 107.772 85.015 106.806 85.015 106.806Z"/>
<path d="M21.452 125.695C17.506 124.063 21.207 121.595 21.207 121.595C22.623 121.421 25.35 121.437 25.35 121.437C28.077 121.452 34.669 121.378 34.669 121.378C41.26 121.304 50.407 120.988 50.407 120.988C59.553 120.672 70.424 120.479 70.424 120.479C81.294 120.286 92.763 120.07 92.763 120.07C104.232 119.854 115.761 119.673 115.761 119.673C127.29 119.492 137.656 119.349 137.656 119.349C148.022 119.206 156.258 119.147 156.258 119.147C164.493 119.088 169.968 118.953 169.968 118.953C175.442 118.817 178.37 118.533 178.37 118.533C181.297 118.248 181.346 119.441 181.346 119.441C181.394 120.633 177.438 120.627 177.438 120.627C173.482 120.62 164.986 121.309 164.986 121.309C156.49 121.997 144.804 123.336 144.804 123.336C133.118 124.674 120.212 126.475 120.212 126.475C107.306 128.276 94.893 130.383 94.893 130.383C82.479 132.49 71.006 134.678 71.006 134.678C59.533 136.866 49.718 138.84 49.718 138.84C39.904 140.814 32.321 142.56 32.321 142.56C24.738 144.306 19.902 145.767 19.902 145.767C15.066 147.229 12.959 148.23 12.959 148.23C10.852 149.232 11.305 148.786 11.305 148.786C11.758 148.34 15.395 149.576 15.395 149.576C19.031 150.812 26.584 151.528 26.584 151.528C34.136 152.244 44.927 152.201 44.927 152.201C55.717 152.158 69.023 151.611 69.023 151.611C82.329 151.064 97.538 150.284 97.538 150.284C112.747 149.504 129.158 148.94 129.158 148.94C145.57 148.376 162.098 148.266 162.098 148.266C178.626 148.156 193.769 148.577 193.769 148.577C208.912 148.998 221.261 149.736 221.261 149.736C233.61 150.473 242.529 151.257 242.529 151.257C251.448 152.04 257.156 152.489 257.156 152.489C262.863 152.937 265.882 152.952 265.882 152.952C268.9 152.967 270.173 152.656 270.173 152.656C273.912 154.88 269.936 156.332 269.936 156.332C268.72 155.772 265.737 155.183 265.737 155.183C262.755 154.594 257.065 153.864 257.065 153.864C251.375 153.134 242.472 152.205 242.472 152.205C233.569 151.276 221.231 150.467 221.231 150.467C208.894 149.658 193.758 149.21 193.758 149.21C178.623 148.762 162.101 148.874 162.101 148.874C145.579 148.986 129.173 149.574 129.173 149.574C112.767 150.161 97.561 150.988 97.561 150.988C82.355 151.814 69.046 152.446 69.046 152.446C55.737 153.078 44.928 153.303 44.928 153.303C34.119 153.529 26.5 153.322 26.5 153.322C18.881 153.115 14.808 153.106 14.808 153.106C10.735 153.097 10.103 150.978 10.103 150.978C9.471 148.859 12.08 147.807 12.08 147.807C14.689 146.754 19.614 145.362 19.614 145.362C24.539 143.969 32.157 142.257 32.157 142.257C39.775 140.544 49.602 138.589 49.602 138.589C59.429 136.633 70.909 134.453 70.909 134.453C82.389 132.273 94.811 130.168 94.811 130.168C107.233 128.063 120.142 126.25 120.142 126.25C133.051 124.437 144.733 123.053 144.733 123.053C156.416 121.67 164.889 120.815 164.889 120.815C173.363 119.96 177.256 119.349 177.256 119.349C181.149 118.738 181.24 119.931 181.24 119.931C181.331 121.123 178.388 120.839 178.388 120.839C175.444 120.554 169.97 120.419 169.97 120.419C164.495 120.283 156.262 120.225 156.262 120.225C148.029 120.166 137.665 120.262 137.665 120.262C127.301 120.358 115.773 120.542 115.773 120.542C104.245 120.726 92.777 120.965 92.777 120.965C81.309 121.204 70.443 121.475 70.443 121.475C59.577 121.747 50.447 122.25 50.447 122.25C41.316 122.754 34.774 123.589 34.774 123.589C28.232 124.424 25.57 125.014 25.57 125.014C22.903 125.596 21.452 125.695 21.452 125.695Z"/>
<path d="M200.85 179.194C178.324 133.386 202.111 177.77 202.111 177.77C223.593 221.544 200.85 179.194 200.85 179.194Z"/>
<path d="M188.249 140.87C187.904 136.379 190.503 137.767 190.503 137.767C191.033 138.409 191.437 139.179 191.437 139.179C191.84 139.95 192.311 141.186 192.311 141.186C192.782 142.422 192.785 142.242 192.785 142.242C192.788 142.062 193.249 141.714 193.249 141.714C193.71 141.366 195.453 140.03 195.453 140.03C199.317 138.607 197.379 143.378 197.379 143.378C195.962 145.384 194.843 146.201 194.843 146.201C193.724 147.018 192.27 146.406 192.27 146.406C190.816 145.795 189.956 144.515 189.956 144.515C189.096 143.235 188.802 142.519 188.802 142.519C188.509 141.805 188.249 140.87 188.249 140.87Z"/>
<path d="M171.379 133.335C174.188 135.255 170.269 133.546 170.269 133.546C169.055 132.885 168.099 132.583 168.099 132.583C167.143 132.281 165.347 131.646 165.347 131.646C163.551 131.011 162.409 131.054 162.409 131.054C161.267 131.097 160.626 131.407 160.626 131.407C159.985 131.717 159.759 132.178 159.759 132.178C159.533 132.638 159.462 133.544 159.462 133.544C159.391 134.45 159.704 135.555 159.704 135.555C160.017 136.66 160.738 137.618 160.738 137.618C161.459 138.576 162.498 139.288 162.498 139.288C163.537 140 164.752 140.274 164.752 140.274C165.966 140.548 167.156 140.326 167.156 140.326C168.346 140.104 169.303 139.425 169.303 139.425C170.261 138.746 170.943 137.69 170.943 137.69C171.626 136.634 171.925 135.563 171.925 135.563C172.225 134.492 172.692 133.223 172.692 133.223C173.159 131.954 174.769 132.056 174.769 132.056C176.379 132.158 177.057 133.554 177.057 133.554C177.735 134.951 178.499 136.798 178.499 136.798C179.263 138.645 179.836 139.708 179.836 139.708C180.409 140.771 180.89 142.155 180.89 142.155C181.017 147.102 178.214 144.758 178.214 144.758C177.62 143.421 177.32 142.197 177.32 142.197C177.02 140.973 176.111 139.451 176.111 139.451C175.202 137.929 174.44 137.126 174.44 137.126C173.678 136.322 174.176 135.684 174.176 135.684C174.674 135.045 174.882 135.745 174.882 135.745C175.09 136.444 174.607 137.886 174.607 137.886C174.123 139.327 173.206 140.73 173.206 140.73C172.289 142.133 170.841 143.137 170.841 143.137C169.393 144.141 167.648 144.457 167.648 144.457C165.904 144.773 164.174 144.396 164.174 144.396C162.444 144.02 160.998 143.085 160.998 143.085C159.552 142.15 158.526 140.845 158.526 140.845C157.501 139.539 156.957 138.035 156.957 138.035C156.414 136.531 156.436 135.07 156.436 135.07C156.458 133.61 157.238 132.314 157.238 132.314C158.018 131.019 159.388 130.529 159.388 130.529C160.759 130.039 162.408 130.165 162.408 130.165C164.057 130.291 166.081 130.95 166.081 130.95C168.105 131.61 169.127 132.084 169.127 132.084C170.15 132.559 171.379 133.335 171.379 133.335Z"/>
<path d="M185.659 138.039C184.455 133.814 187.506 134.531 187.506 134.531C188.166 135.134 188.638 135.321 188.638 135.321C189.11 135.508 189.76 136.17 189.76 136.17C190.41 136.832 190.44 136.66 190.44 136.66C190.47 136.488 191.067 136.037 191.067 136.037C191.664 135.586 192.526 134.78 192.526 134.78C193.388 133.974 194.843 133.208 194.843 133.208C199.036 133.097 196.5 137.155 196.5 137.155C195.323 138.102 194.665 138.822 194.665 138.822C194.007 139.543 193.153 140.359 193.153 140.359C192.299 141.176 190.826 141.266 190.826 141.266C189.353 141.356 188.22 140.777 188.22 140.777C187.087 140.197 186.647 139.574 186.647 139.574C186.207 138.952 185.659 138.039 185.659 138.039Z"/>
<path d="M209.523 143.837C212.181 143.837 214.335 141.682 214.335 139.025C214.335 136.367 212.18 134.213 209.523 134.213C206.866 134.213 204.711 136.368 204.711 139.025C204.71 141.683 206.865 143.837 209.523 143.837Z"/>
<path d="M213.518 121.351C214.232 117.042 216.075 118.834 216.075 118.834C216.401 119.382 216.535 121.009 216.535 121.009C216.669 122.636 217.015 125.647 217.015 125.647C217.361 128.658 217.843 131.183 217.843 131.183C218.324 133.708 218.215 133.615 218.215 133.615C218.105 133.522 218.204 133.077 218.204 133.077C218.303 132.632 219.229 131.547 219.229 131.547C220.155 130.461 221.645 130.165 221.645 130.165C223.135 129.869 224.005 130.585 224.005 130.585C224.875 131.301 225.687 132.399 225.687 132.399C226.5 133.497 227.043 134.664 227.043 134.664C227.587 135.831 227.666 137.004 227.666 137.004C227.745 138.177 227.265 139.234 227.265 139.234C226.785 140.291 225.926 140.995 225.926 140.995C225.067 141.7 223.962 142.147 223.962 142.147C222.856 142.595 221.35 142.786 221.35 142.786C217.189 142.679 220.786 141.475 220.786 141.475C222.091 141.215 222.698 140.953 222.698 140.953C223.305 140.69 223.731 140.333 223.731 140.333C224.157 139.976 224.321 139.662 224.321 139.662C224.485 139.348 224.515 138.822 224.515 138.822C224.545 138.296 224.229 137.554 224.229 137.554C223.913 136.812 223.295 136.181 223.295 136.181C222.677 135.55 222.08 135.28 222.08 135.28C221.483 135.01 221.778 134.711 221.778 134.711C222.073 134.412 221.609 135.258 221.609 135.258C221.145 136.104 220.165 137.05 220.165 137.05C219.185 137.996 217.841 136.714 217.841 136.714C216.497 135.432 216.065 132.744 216.065 132.744C215.634 130.055 214.951 127.427 214.951 127.427C214.268 124.799 213.867 123.482 213.867 123.482C213.464 122.167 213.518 121.351 213.518 121.351Z"/>
<path d="M243.71 143.773C242.577 145.125 241.601 141.606 241.601 141.606C241.772 140.861 241.464 140.773 241.464 140.773C241.156 140.685 240.928 140.407 240.928 140.407C240.699 140.128 240.774 140.294 240.774 140.294C240.848 140.46 240.716 140.584 240.716 140.584C240.584 140.708 240.483 141.067 240.483 141.067C240.382 141.425 240.433 142.091 240.433 142.091C240.484 142.757 240.848 143.477 240.848 143.477C241.213 144.197 241.849 144.693 241.849 144.693C242.486 145.189 243.868 145.762 243.868 145.762C247.212 148.949 242.92 149.999 242.92 149.999C241.259 149.629 240.044 148.754 240.044 148.754C238.829 147.879 238.135 146.715 238.135 146.715C237.441 145.55 237.226 144.307 237.226 144.307C237.011 143.064 237.362 141.893 237.362 141.893C237.712 140.721 238.662 140.023 238.662 140.023C239.612 139.324 241.047 139.48 241.047 139.48C242.482 139.636 243.08 140.631 243.08 140.631C243.678 141.627 243.742 142.312 243.742 142.312C243.804 142.997 243.71 143.773 243.71 143.773Z"/>
<path d="M250.525 87.257C251.878 82.86 252.956 85.457 252.956 85.457C252.996 86.487 252.702 89.875 252.702 89.875C252.407 93.262 252.293 99.864 252.293 99.864C252.179 106.466 252.335 114.317 252.335 114.317C252.492 122.168 252.961 128.528 252.961 128.528C253.43 134.888 254.013 139.342 254.013 139.342C254.595 143.796 255.246 146.872 255.246 146.872C255.897 149.948 256.357 152.24 256.357 152.24C256.817 154.532 257.191 155.637 257.191 155.637C256.48 160.35 254.676 157.384 254.676 157.384C254.698 155.999 254.442 153.599 254.442 153.599C254.185 151.198 253.741 147.952 253.741 147.952C253.297 144.705 252.88 140.105 252.88 140.105C252.463 135.505 252.09 129.084 252.09 129.084C251.716 122.663 251.501 114.858 251.501 114.858C251.286 107.053 251.065 100.705 251.065 100.705C250.844 94.356 250.596 91.385 250.596 91.385C250.349 88.41 250.525 87.257 250.525 87.257Z"/>
<path d="M116.609 169.667C112.571 167.17 116.898 165.79 116.898 165.79C118.692 166.099 122.266 166.846 122.266 166.846C125.84 167.592 133.978 168.517 133.978 168.517C142.116 169.442 152.719 169.759 152.719 169.759C163.322 170.076 174.329 169.305 174.329 169.305C185.336 168.534 195.171 166.335 195.171 166.335C205.006 164.137 212.995 159.91 212.995 159.91C220.984 155.683 226.406 148.984 226.406 148.984C231.828 142.285 234.489 133.176 234.489 133.176C237.15 124.067 236.891 113.76 236.891 113.76C236.632 103.453 233.706 93.575 233.706 93.575C230.779 83.696 226.345 76.158 226.345 76.158C221.911 68.619 217.486 64.213 217.486 64.213C213.062 59.807 209.707 58.84 209.707 58.84C206.353 57.873 203.391 60.626 203.391 60.626C200.43 63.379 197.447 70.829 197.447 70.829C194.465 78.28 192.244 89.407 192.244 89.407C190.024 100.535 188.99 112.948 188.99 112.948C187.957 125.361 188.166 136.808 188.166 136.808C188.376 148.255 189.559 157.811 189.559 157.811C190.742 167.367 192.383 174.332 192.383 174.332C194.024 181.297 195.571 185.301 195.571 185.301C197.118 189.305 197.891 190.22 197.891 190.22C198.664 191.135 199.356 189.937 199.356 189.937C200.048 188.739 202.766 183.142 202.766 183.142C205.485 177.544 208.729 166.669 208.729 166.669C211.973 155.794 214.582 141.574 214.582 141.574C217.19 127.355 218.206 113.383 218.206 113.383C219.222 99.411 218.663 87.906 218.663 87.906C218.104 76.401 216.582 68.204 216.582 68.204C215.06 60.007 213.116 55.113 213.116 55.113C211.172 50.219 209.819 49.119 209.819 49.119C208.466 48.019 206.942 51.37 206.942 51.37C205.418 54.721 204.146 64.28 204.146 64.28C202.875 73.84 202.949 88.065 202.949 88.065C203.024 102.291 204.757 118.05 204.757 118.05C206.49 133.809 209.325 147.647 209.325 147.647C212.159 161.485 215.059 171.672 215.059 171.672C217.959 181.858 219.908 188.016 219.908 188.016C221.857 194.174 222.514 197.217 222.514 197.217C223.17 200.26 220.459 201.003 220.459 201.003C217.748 201.746 211.708 199.98 211.708 199.98C205.669 198.214 195.583 195.311 195.583 195.311C185.498 192.409 172.903 189.487 172.903 189.487C160.309 186.565 147.897 184.773 147.897 184.773C135.486 182.981 125.381 182.263 125.381 182.263C115.276 181.545 109.015 181.456 109.015 181.456C102.753 181.367 100.405 181.072 100.405 181.072C98.057 180.776 100.429 180.133 100.429 180.133C102.801 179.489 110.559 180.021 110.559 180.021C118.317 180.552 131.027 180.837 131.027 180.837C143.737 181.122 158.88 181.68 158.88 181.68C174.023 182.239 188.381 183.141 188.381 183.141C202.739 184.044 214.641 185.078 214.641 185.078C226.543 186.112 234.261 186.708 234.261 186.708C241.979 187.303 245.803 187.325 245.803 187.325C250.922 188.613 245.716 189.124 245.716 189.124C241.91 188.559 234.202 187.75 234.202 187.75C226.493 186.941 214.599 185.838 214.599 185.838C202.704 184.735 188.354 183.816 188.354 183.816C174.003 182.897 158.865 182.4 158.865 182.4C143.726 181.903 131.02 181.856 131.02 181.856C118.314 181.809 110.558 182.304 110.558 182.304C102.803 182.799 100.426 182.155 100.426 182.155C98.049 181.511 100.403 181.216 100.403 181.216C102.758 180.92 109.031 181.091 109.031 181.091C115.305 181.261 125.422 182.007 125.422 182.007C135.54 182.753 147.971 184.551 147.971 184.551C160.402 186.35 173.028 189.252 173.028 189.252C185.654 192.155 195.801 194.981 195.801 194.981C205.948 197.807 212.039 199.29 212.039 199.29C218.13 200.773 219.794 200.683 219.794 200.683C221.457 200.593 221.197 197.778 221.197 197.778C220.937 194.963 219.16 188.662 219.16 188.662C217.382 182.361 214.55 172.102 214.55 172.102C211.718 161.844 208.903 147.969 208.903 147.969C206.089 134.094 204.33 118.33 204.33 118.33C202.572 102.566 202.391 88.368 202.391 88.368C202.21 74.17 203.099 64.689 203.099 64.689C203.988 55.208 205.71 51.244 205.71 51.244C207.432 47.28 209.799 48.772 209.799 48.772C212.166 50.264 213.979 55.244 213.979 55.244C215.792 60.224 217.224 68.432 217.224 68.432C218.656 76.641 219.168 88.153 219.168 88.153C219.681 99.665 218.655 113.659 218.655 113.659C217.63 127.652 215.074 141.939 215.074 141.939C212.518 156.226 209.457 167.305 209.457 167.305C206.395 178.384 204.262 184.735 204.262 184.735C202.128 191.086 200.178 193.011 200.178 193.011C198.228 194.936 197.046 192.748 197.046 192.748C195.864 190.56 194.527 186.287 194.527 186.287C193.189 182.014 191.641 174.926 191.641 174.926C190.093 167.839 188.956 158.218 188.956 158.218C187.819 148.597 187.631 137.11 187.631 137.11C187.442 125.623 188.453 113.194 188.453 113.194C189.464 100.765 191.585 89.633 191.585 89.633C193.706 78.501 196.475 70.966 196.475 70.966C199.244 63.432 202.616 60.323 202.616 60.323C205.987 57.214 209.808 58.375 209.808 58.375C213.629 59.535 218.056 64.054 218.056 64.054C222.483 68.572 226.914 76.178 226.914 76.178C231.344 83.784 234.292 93.736 234.292 93.736C237.24 103.688 237.525 114.098 237.525 114.098C237.81 124.508 235.144 133.759 235.144 133.759C232.478 143.01 226.948 149.81 226.948 149.81C221.418 156.609 213.313 160.843 213.313 160.843C205.209 165.076 195.309 167.249 195.309 167.249C185.41 169.422 174.369 170.21 174.369 170.21C163.329 170.998 152.7 170.808 152.7 170.808C142.072 170.617 133.887 170.297 133.887 170.297C125.702 169.977 122.054 169.907 122.054 169.907C118.409 169.839 116.609 169.667 116.609 169.667Z"/>
<path d="M285.188 207.212C287.846 207.212 290 205.057 290 202.4C290 199.743 287.845 197.588 285.188 197.588C282.531 197.588 280.376 199.743 280.376 202.4C280.376 205.057 282.53 207.212 285.188 207.212Z"/>
</mask>
<path d="M85.015 106.806C86.275 102.526 87.534 104.834 87.534 104.834C87.684 105.644 87.614 107.106 87.614 107.106C87.544 108.568 87.298 112.136 87.298 112.136C87.052 115.704 87.008 119.857 87.008 119.857C86.965 124.011 86.925 128.994 86.925 128.994C86.886 133.978 86.839 138.934 86.839 138.934C86.792 143.891 86.644 149.077 86.644 149.077C86.496 154.263 86.342 158.904 86.342 158.904C86.188 163.545 85.998 167.618 85.998 167.618C85.809 171.692 85.66 175.368 85.66 175.368C85.512 179.045 85.361 182.365 85.361 182.365C85.21 185.685 85.173 188.487 85.173 188.487C85.136 191.289 85.185 193.342 85.185 193.342C85.234 195.395 85.019 196.515 85.019 196.515C84.804 197.635 83.524 196.777 83.524 196.777C82.244 195.92 82.572 192.751 82.572 192.751C82.9 189.583 82.968 183.76 82.968 183.76C83.036 177.937 83.069 170.822 83.069 170.822C83.102 163.707 83.118 155.996 83.118 155.996C83.134 148.285 83.138 140.377 83.138 140.377C83.143 132.469 83.136 124.84 83.136 124.84C83.129 117.211 83.097 110.666 83.097 110.666C83.065 104.121 82.979 99.452 82.979 99.452C82.894 94.783 82.712 92.064 82.712 92.064C82.53 89.345 84.21 89.111 84.21 89.111C85.89 88.877 86.141 91.74 86.141 91.74C86.392 94.602 87.374 99.197 87.374 99.197C88.357 103.792 89.917 108.279 89.917 108.279C91.478 112.766 93.51 116.9 93.51 116.9C95.542 121.034 98.009 124.319 98.009 124.319C100.476 127.605 103.342 130.189 103.342 130.189C106.208 132.773 109.211 134.378 109.211 134.378C112.213 135.983 115.151 136.552 115.151 136.552C118.089 137.12 120.796 136.657 120.796 136.657C123.504 136.193 126.049 134.527 126.049 134.527C128.594 132.861 130.839 129.947 130.839 129.947C133.084 127.033 134.71 123.155 134.71 123.155C136.336 119.277 137.29 115.004 137.29 115.004C138.243 110.731 138.692 106.1 138.692 106.1C139.141 101.47 139.332 97.103 139.332 97.103C139.523 92.736 139.547 89.2 139.547 89.2C139.572 85.663 139.535 83.456 139.535 83.456C139.499 81.249 141.292 81.403 141.292 81.403C143.085 81.558 143.155 85.032 143.155 85.032C143.225 88.506 143.84 94.3 143.84 94.3C144.455 100.094 145.226 106.988 145.226 106.988C145.997 113.883 146.831 121.269 146.831 121.269C147.665 128.655 148.42 136.436 148.42 136.436C149.176 144.216 149.931 152.321 149.931 152.321C150.687 160.425 151.538 168.826 151.538 168.826C152.389 177.227 153.339 185.473 153.339 185.473C154.289 193.72 155.256 201.39 155.256 201.39C156.223 209.061 157.074 215.55 157.074 215.55C157.925 222.039 158.696 227.227 158.696 227.227C159.467 232.415 160.144 236.734 160.144 236.734C160.821 241.053 161.422 244.162 161.422 244.162C162.024 247.27 162.495 248.926 162.495 248.926C162.066 253.659 160.403 250.413 160.403 250.413C160.313 248.497 159.899 245.247 159.899 245.247C159.485 241.996 158.904 237.603 158.904 237.603C158.323 233.21 157.654 227.946 157.654 227.946C156.985 222.682 156.2 216.145 156.2 216.145C155.415 209.608 154.474 201.918 154.474 201.918C153.533 194.229 152.588 185.973 152.588 185.973C151.643 177.718 150.778 169.321 150.778 169.321C149.913 160.925 149.142 152.829 149.142 152.829C148.371 144.733 147.596 136.971 147.596 136.971C146.822 129.209 145.959 121.846 145.959 121.846C145.097 114.483 144.242 107.65 144.242 107.65C143.387 100.817 142.426 95.28 142.426 95.28C141.465 89.743 140.489 87.087 140.489 87.087C139.514 84.431 140.663 83.783 140.663 83.783C141.812 83.135 141.504 84.867 141.504 84.867C141.196 86.599 141.038 90.062 141.038 90.062C140.88 93.525 140.649 97.887 140.649 97.887C140.418 102.249 139.994 106.952 139.994 106.952C139.57 111.655 138.612 116.044 138.612 116.044C137.654 120.433 136.034 124.511 136.034 124.511C134.414 128.589 132.109 131.815 132.109 131.815C129.804 135.041 126.995 136.986 126.995 136.986C124.187 138.931 121.1 139.393 121.1 139.393C118.013 139.855 114.824 139.119 114.824 139.119C111.635 138.383 108.484 136.58 108.484 136.58C105.333 134.777 102.381 132.047 102.381 132.047C99.429 129.317 96.931 125.856 96.931 125.856C94.433 122.394 92.373 118.164 92.373 118.164C90.313 113.934 88.711 109.4 88.711 109.4C87.109 104.866 85.758 100.543 85.758 100.543C84.407 96.22 83.32 94.17 83.32 94.17C82.233 92.12 83.392 91.365 83.392 91.365C84.551 90.61 84.369 93.046 84.369 93.046C84.187 95.482 84.102 100.062 84.102 100.062C84.017 104.643 83.984 111.151 83.984 111.151C83.952 117.66 83.945 125.281 83.945 125.281C83.938 132.902 83.943 140.816 83.943 140.816C83.948 148.729 83.963 156.458 83.963 156.458C83.979 164.187 84.029 171.343 84.029 171.343C84.079 178.499 84.326 184.482 84.326 184.482C84.573 190.464 85.084 194.03 85.084 194.03C85.595 197.596 84.481 198.365 84.481 198.365C83.367 199.134 83.152 197.884 83.152 197.884C82.937 196.634 83.086 194.455 83.086 194.455C83.235 192.276 83.38 189.403 83.38 189.403C83.525 186.53 83.739 183.172 83.739 183.172C83.953 179.815 84.163 176.107 84.163 176.107C84.373 172.399 84.635 168.292 84.635 168.292C84.897 164.184 85.108 159.525 85.108 159.525C85.319 154.866 85.443 149.7 85.443 149.7C85.567 144.534 85.613 139.588 85.613 139.588C85.659 134.641 85.62 129.734 85.62 129.734C85.581 124.827 85.537 120.763 85.537 120.763C85.494 116.699 85.247 113.516 85.247 113.516C85.001 110.333 84.931 109.051 84.931 109.051C84.865 107.772 85.015 106.806 85.015 106.806Z" fill="black"/>
<path d="M21.452 125.695C17.506 124.063 21.207 121.595 21.207 121.595C22.623 121.421 25.35 121.437 25.35 121.437C28.077 121.452 34.669 121.378 34.669 121.378C41.26 121.304 50.407 120.988 50.407 120.988C59.553 120.672 70.424 120.479 70.424 120.479C81.294 120.286 92.763 120.07 92.763 120.07C104.232 119.854 115.761 119.673 115.761 119.673C127.29 119.492 137.656 119.349 137.656 119.349C148.022 119.206 156.258 119.147 156.258 119.147C164.493 119.088 169.968 118.953 169.968 118.953C175.442 118.817 178.37 118.533 178.37 118.533C181.297 118.248 181.346 119.441 181.346 119.441C181.394 120.633 177.438 120.627 177.438 120.627C173.482 120.62 164.986 121.309 164.986 121.309C156.49 121.997 144.804 123.336 144.804 123.336C133.118 124.674 120.212 126.475 120.212 126.475C107.306 128.276 94.893 130.383 94.893 130.383C82.479 132.49 71.006 134.678 71.006 134.678C59.533 136.866 49.718 138.84 49.718 138.84C39.904 140.814 32.321 142.56 32.321 142.56C24.738 144.306 19.902 145.767 19.902 145.767C15.066 147.229 12.959 148.23 12.959 148.23C10.852 149.232 11.305 148.786 11.305 148.786C11.758 148.34 15.395 149.576 15.395 149.576C19.031 150.812 26.584 151.528 26.584 151.528C34.136 152.244 44.927 152.201 44.927 152.201C55.717 152.158 69.023 151.611 69.023 151.611C82.329 151.064 97.538 150.284 97.538 150.284C112.747 149.504 129.158 148.94 129.158 148.94C145.57 148.376 162.098 148.266 162.098 148.266C178.626 148.156 193.769 148.577 193.769 148.577C208.912 148.998 221.261 149.736 221.261 149.736C233.61 150.473 242.529 151.257 242.529 151.257C251.448 152.04 257.156 152.489 257.156 152.489C262.863 152.937 265.882 152.952 265.882 152.952C268.9 152.967 270.173 152.656 270.173 152.656C273.912 154.88 269.936 156.332 269.936 156.332C268.72 155.772 265.737 155.183 265.737 155.183C262.755 154.594 257.065 153.864 257.065 153.864C251.375 153.134 242.472 152.205 242.472 152.205C233.569 151.276 221.231 150.467 221.231 150.467C208.894 149.658 193.758 149.21 193.758 149.21C178.623 148.762 162.101 148.874 162.101 148.874C145.579 148.986 129.173 149.574 129.173 149.574C112.767 150.161 97.561 150.988 97.561 150.988C82.355 151.814 69.046 152.446 69.046 152.446C55.737 153.078 44.928 153.303 44.928 153.303C34.119 153.529 26.5 153.322 26.5 153.322C18.881 153.115 14.808 153.106 14.808 153.106C10.735 153.097 10.103 150.978 10.103 150.978C9.471 148.859 12.08 147.807 12.08 147.807C14.689 146.754 19.614 145.362 19.614 145.362C24.539 143.969 32.157 142.257 32.157 142.257C39.775 140.544 49.602 138.589 49.602 138.589C59.429 136.633 70.909 134.453 70.909 134.453C82.389 132.273 94.811 130.168 94.811 130.168C107.233 128.063 120.142 126.25 120.142 126.25C133.051 124.437 144.733 123.053 144.733 123.053C156.416 121.67 164.889 120.815 164.889 120.815C173.363 119.96 177.256 119.349 177.256 119.349C181.149 118.738 181.24 119.931 181.24 119.931C181.331 121.123 178.388 120.839 178.388 120.839C175.444 120.554 169.97 120.419 169.97 120.419C164.495 120.283 156.262 120.225 156.262 120.225C148.029 120.166 137.665 120.262 137.665 120.262C127.301 120.358 115.773 120.542 115.773 120.542C104.245 120.726 92.777 120.965 92.777 120.965C81.309 121.204 70.443 121.475 70.443 121.475C59.577 121.747 50.447 122.25 50.447 122.25C41.316 122.754 34.774 123.589 34.774 123.589C28.232 124.424 25.57 125.014 25.57 125.014C22.903 125.596 21.452 125.695 21.452 125.695Z" fill="black"/>
<path d="M200.85 179.194C178.324 133.386 202.111 177.77 202.111 177.77C223.593 221.544 200.85 179.194 200.85 179.194Z" fill="black"/>
<path d="M188.249 140.87C187.904 136.379 190.503 137.767 190.503 137.767C191.033 138.409 191.437 139.179 191.437 139.179C191.84 139.95 192.311 141.186 192.311 141.186C192.782 142.422 192.785 142.242 192.785 142.242C192.788 142.062 193.249 141.714 193.249 141.714C193.71 141.366 195.453 140.03 195.453 140.03C199.317 138.607 197.379 143.378 197.379 143.378C195.962 145.384 194.843 146.201 194.843 146.201C193.724 147.018 192.27 146.406 192.27 146.406C190.816 145.795 189.956 144.515 189.956 144.515C189.096 143.235 188.802 142.519 188.802 142.519C188.509 141.805 188.249 140.87 188.249 140.87Z" fill="black"/>
<path d="M171.379 133.335C174.188 135.255 170.269 133.546 170.269 133.546C169.055 132.885 168.099 132.583 168.099 132.583C167.143 132.281 165.347 131.646 165.347 131.646C163.551 131.011 162.409 131.054 162.409 131.054C161.267 131.097 160.626 131.407 160.626 131.407C159.985 131.717 159.759 132.178 159.759 132.178C159.533 132.638 159.462 133.544 159.462 133.544C159.391 134.45 159.704 135.555 159.704 135.555C160.017 136.66 160.738 137.618 160.738 137.618C161.459 138.576 162.498 139.288 162.498 139.288C163.537 140 164.752 140.274 164.752 140.274C165.966 140.548 167.156 140.326 167.156 140.326C168.346 140.104 169.303 139.425 169.303 139.425C170.261 138.746 170.943 137.69 170.943 137.69C171.626 136.634 171.925 135.563 171.925 135.563C172.225 134.492 172.692 133.223 172.692 133.223C173.159 131.954 174.769 132.056 174.769 132.056C176.379 132.158 177.057 133.554 177.057 133.554C177.735 134.951 178.499 136.798 178.499 136.798C179.263 138.645 179.836 139.708 179.836 139.708C180.409 140.771 180.89 142.155 180.89 142.155C181.017 147.102 178.214 144.758 178.214 144.758C177.62 143.421 177.32 142.197 177.32 142.197C177.02 140.973 176.111 139.451 176.111 139.451C175.202 137.929 174.44 137.126 174.44 137.126C173.678 136.322 174.176 135.684 174.176 135.684C174.674 135.045 174.882 135.745 174.882 135.745C175.09 136.444 174.607 137.886 174.607 137.886C174.123 139.327 173.206 140.73 173.206 140.73C172.289 142.133 170.841 143.137 170.841 143.137C169.393 144.141 167.648 144.457 167.648 144.457C165.904 144.773 164.174 144.396 164.174 144.396C162.444 144.02 160.998 143.085 160.998 143.085C159.552 142.15 158.526 140.845 158.526 140.845C157.501 139.539 156.957 138.035 156.957 138.035C156.414 136.531 156.436 135.07 156.436 135.07C156.458 133.61 157.238 132.314 157.238 132.314C158.018 131.019 159.388 130.529 159.388 130.529C160.759 130.039 162.408 130.165 162.408 130.165C164.057 130.291 166.081 130.95 166.081 130.95C168.105 131.61 169.127 132.084 169.127 132.084C170.15 132.559 171.379 133.335 171.379 133.335Z" fill="black"/>
<path d="M185.659 138.039C184.455 133.814 187.506 134.531 187.506 134.531C188.166 135.134 188.638 135.321 188.638 135.321C189.11 135.508 189.76 136.17 189.76 136.17C190.41 136.832 190.44 136.66 190.44 136.66C190.47 136.488 191.067 136.037 191.067 136.037C191.664 135.586 192.526 134.78 192.526 134.78C193.388 133.974 194.843 133.208 194.843 133.208C199.036 133.097 196.5 137.155 196.5 137.155C195.323 138.102 194.665 138.822 194.665 138.822C194.007 139.543 193.153 140.359 193.153 140.359C192.299 141.176 190.826 141.266 190.826 141.266C189.353 141.356 188.22 140.777 188.22 140.777C187.087 140.197 186.647 139.574 186.647 139.574C186.207 138.952 185.659 138.039 185.659 138.039Z" fill="black"/>
<path d="M209.523 143.837C212.181 143.837 214.335 141.682 214.335 139.025C214.335 136.367 212.18 134.213 209.523 134.213C206.866 134.213 204.711 136.368 204.711 139.025C204.71 141.683 206.865 143.837 209.523 143.837Z" fill="black"/>
<path d="M213.518 121.351C214.232 117.042 216.075 118.834 216.075 118.834C216.401 119.382 216.535 121.009 216.535 121.009C216.669 122.636 217.015 125.647 217.015 125.647C217.361 128.658 217.843 131.183 217.843 131.183C218.324 133.708 218.215 133.615 218.215 133.615C218.105 133.522 218.204 133.077 218.204 133.077C218.303 132.632 219.229 131.547 219.229 131.547C220.155 130.461 221.645 130.165 221.645 130.165C223.135 129.869 224.005 130.585 224.005 130.585C224.875 131.301 225.687 132.399 225.687 132.399C226.5 133.497 227.043 134.664 227.043 134.664C227.587 135.831 227.666 137.004 227.666 137.004C227.745 138.177 227.265 139.234 227.265 139.234C226.785 140.291 225.926 140.995 225.926 140.995C225.067 141.7 223.962 142.147 223.962 142.147C222.856 142.595 221.35 142.786 221.35 142.786C217.189 142.679 220.786 141.475 220.786 141.475C222.091 141.215 222.698 140.953 222.698 140.953C223.305 140.69 223.731 140.333 223.731 140.333C224.157 139.976 224.321 139.662 224.321 139.662C224.485 139.348 224.515 138.822 224.515 138.822C224.545 138.296 224.229 137.554 224.229 137.554C223.913 136.812 223.295 136.181 223.295 136.181C222.677 135.55 222.08 135.28 222.08 135.28C221.483 135.01 221.778 134.711 221.778 134.711C222.073 134.412 221.609 135.258 221.609 135.258C221.145 136.104 220.165 137.05 220.165 137.05C219.185 137.996 217.841 136.714 217.841 136.714C216.497 135.432 216.065 132.744 216.065 132.744C215.634 130.055 214.951 127.427 214.951 127.427C214.268 124.799 213.867 123.482 213.867 123.482C213.464 122.167 213.518 121.351 213.518 121.351Z" fill="black"/>
<path d="M243.71 143.773C242.577 145.125 241.601 141.606 241.601 141.606C241.772 140.861 241.464 140.773 241.464 140.773C241.156 140.685 240.928 140.407 240.928 140.407C240.699 140.128 240.774 140.294 240.774 140.294C240.848 140.46 240.716 140.584 240.716 140.584C240.584 140.708 240.483 141.067 240.483 141.067C240.382 141.425 240.433 142.091 240.433 142.091C240.484 142.757 240.848 143.477 240.848 143.477C241.213 144.197 241.849 144.693 241.849 144.693C242.486 145.189 243.868 145.762 243.868 145.762C247.212 148.949 242.92 149.999 242.92 149.999C241.259 149.629 240.044 148.754 240.044 148.754C238.829 147.879 238.135 146.715 238.135 146.715C237.441 145.55 237.226 144.307 237.226 144.307C237.011 143.064 237.362 141.893 237.362 141.893C237.712 140.721 238.662 140.023 238.662 140.023C239.612 139.324 241.047 139.48 241.047 139.48C242.482 139.636 243.08 140.631 243.08 140.631C243.678 141.627 243.742 142.312 243.742 142.312C243.804 142.997 243.71 143.773 243.71 143.773Z" fill="black"/>
<path d="M250.525 87.257C251.878 82.86 252.956 85.457 252.956 85.457C252.996 86.487 252.702 89.875 252.702 89.875C252.407 93.262 252.293 99.864 252.293 99.864C252.179 106.466 252.335 114.317 252.335 114.317C252.492 122.168 252.961 128.528 252.961 128.528C253.43 134.888 254.013 139.342 254.013 139.342C254.595 143.796 255.246 146.872 255.246 146.872C255.897 149.948 256.357 152.24 256.357 152.24C256.817 154.532 257.191 155.637 257.191 155.637C256.48 160.35 254.676 157.384 254.676 157.384C254.698 155.999 254.442 153.599 254.442 153.599C254.185 151.198 253.741 147.952 253.741 147.952C253.297 144.705 252.88 140.105 252.88 140.105C252.463 135.505 252.09 129.084 252.09 129.084C251.716 122.663 251.501 114.858 251.501 114.858C251.286 107.053 251.065 100.705 251.065 100.705C250.844 94.356 250.596 91.385 250.596 91.385C250.349 88.41 250.525 87.257 250.525 87.257Z" fill="black"/>
<path d="M116.609 169.667C112.571 167.17 116.898 165.79 116.898 165.79C118.692 166.099 122.266 166.846 122.266 166.846C125.84 167.592 133.978 168.517 133.978 168.517C142.116 169.442 152.719 169.759 152.719 169.759C163.322 170.076 174.329 169.305 174.329 169.305C185.336 168.534 195.171 166.335 195.171 166.335C205.006 164.137 212.995 159.91 212.995 159.91C220.984 155.683 226.406 148.984 226.406 148.984C231.828 142.285 234.489 133.176 234.489 133.176C237.15 124.067 236.891 113.76 236.891 113.76C236.632 103.453 233.706 93.575 233.706 93.575C230.779 83.696 226.345 76.158 226.345 76.158C221.911 68.619 217.486 64.213 217.486 64.213C213.062 59.807 209.707 58.84 209.707 58.84C206.353 57.873 203.391 60.626 203.391 60.626C200.43 63.379 197.447 70.829 197.447 70.829C194.465 78.28 192.244 89.407 192.244 89.407C190.024 100.535 188.99 112.948 188.99 112.948C187.957 125.361 188.166 136.808 188.166 136.808C188.376 148.255 189.559 157.811 189.559 157.811C190.742 167.367 192.383 174.332 192.383 174.332C194.024 181.297 195.571 185.301 195.571 185.301C197.118 189.305 197.891 190.22 197.891 190.22C198.664 191.135 199.356 189.937 199.356 189.937C200.048 188.739 202.766 183.142 202.766 183.142C205.485 177.544 208.729 166.669 208.729 166.669C211.973 155.794 214.582 141.574 214.582 141.574C217.19 127.355 218.206 113.383 218.206 113.383C219.222 99.411 218.663 87.906 218.663 87.906C218.104 76.401 216.582 68.204 216.582 68.204C215.06 60.007 213.116 55.113 213.116 55.113C211.172 50.219 209.819 49.119 209.819 49.119C208.466 48.019 206.942 51.37 206.942 51.37C205.418 54.721 204.146 64.28 204.146 64.28C202.875 73.84 202.949 88.065 202.949 88.065C203.024 102.291 204.757 118.05 204.757 118.05C206.49 133.809 209.325 147.647 209.325 147.647C212.159 161.485 215.059 171.672 215.059 171.672C217.959 181.858 219.908 188.016 219.908 188.016C221.857 194.174 222.514 197.217 222.514 197.217C223.17 200.26 220.459 201.003 220.459 201.003C217.748 201.746 211.708 199.98 211.708 199.98C205.669 198.214 195.583 195.311 195.583 195.311C185.498 192.409 172.903 189.487 172.903 189.487C160.309 186.565 147.897 184.773 147.897 184.773C135.486 182.981 125.381 182.263 125.381 182.263C115.276 181.545 109.015 181.456 109.015 181.456C102.753 181.367 100.405 181.072 100.405 181.072C98.057 180.776 100.429 180.133 100.429 180.133C102.801 179.489 110.559 180.021 110.559 180.021C118.317 180.552 131.027 180.837 131.027 180.837C143.737 181.122 158.88 181.68 158.88 181.68C174.023 182.239 188.381 183.141 188.381 183.141C202.739 184.044 214.641 185.078 214.641 185.078C226.543 186.112 234.261 186.708 234.261 186.708C241.979 187.303 245.803 187.325 245.803 187.325C250.922 188.613 245.716 189.124 245.716 189.124C241.91 188.559 234.202 187.75 234.202 187.75C226.493 186.941 214.599 185.838 214.599 185.838C202.704 184.735 188.354 183.816 188.354 183.816C174.003 182.897 158.865 182.4 158.865 182.4C143.726 181.903 131.02 181.856 131.02 181.856C118.314 181.809 110.558 182.304 110.558 182.304C102.803 182.799 100.426 182.155 100.426 182.155C98.049 181.511 100.403 181.216 100.403 181.216C102.758 180.92 109.031 181.091 109.031 181.091C115.305 181.261 125.422 182.007 125.422 182.007C135.54 182.753 147.971 184.551 147.971 184.551C160.402 186.35 173.028 189.252 173.028 189.252C185.654 192.155 195.801 194.981 195.801 194.981C205.948 197.807 212.039 199.29 212.039 199.29C218.13 200.773 219.794 200.683 219.794 200.683C221.457 200.593 221.197 197.778 221.197 197.778C220.937 194.963 219.16 188.662 219.16 188.662C217.382 182.361 214.55 172.102 214.55 172.102C211.718 161.844 208.903 147.969 208.903 147.969C206.089 134.094 204.33 118.33 204.33 118.33C202.572 102.566 202.391 88.368 202.391 88.368C202.21 74.17 203.099 64.689 203.099 64.689C203.988 55.208 205.71 51.244 205.71 51.244C207.432 47.28 209.799 48.772 209.799 48.772C212.166 50.264 213.979 55.244 213.979 55.244C215.792 60.224 217.224 68.432 217.224 68.432C218.656 76.641 219.168 88.153 219.168 88.153C219.681 99.665 218.655 113.659 218.655 113.659C217.63 127.652 215.074 141.939 215.074 141.939C212.518 156.226 209.457 167.305 209.457 167.305C206.395 178.384 204.262 184.735 204.262 184.735C202.128 191.086 200.178 193.011 200.178 193.011C198.228 194.936 197.046 192.748 197.046 192.748C195.864 190.56 194.527 186.287 194.527 186.287C193.189 182.014 191.641 174.926 191.641 174.926C190.093 167.839 188.956 158.218 188.956 158.218C187.819 148.597 187.631 137.11 187.631 137.11C187.442 125.623 188.453 113.194 188.453 113.194C189.464 100.765 191.585 89.633 191.585 89.633C193.706 78.501 196.475 70.966 196.475 70.966C199.244 63.432 202.616 60.323 202.616 60.323C205.987 57.214 209.808 58.375 209.808 58.375C213.629 59.535 218.056 64.054 218.056 64.054C222.483 68.572 226.914 76.178 226.914 76.178C231.344 83.784 234.292 93.736 234.292 93.736C237.24 103.688 237.525 114.098 237.525 114.098C237.81 124.508 235.144 133.759 235.144 133.759C232.478 143.01 226.948 149.81 226.948 149.81C221.418 156.609 213.313 160.843 213.313 160.843C205.209 165.076 195.309 167.249 195.309 167.249C185.41 169.422 174.369 170.21 174.369 170.21C163.329 170.998 152.7 170.808 152.7 170.808C142.072 170.617 133.887 170.297 133.887 170.297C125.702 169.977 122.054 169.907 122.054 169.907C118.409 169.839 116.609 169.667 116.609 169.667Z" fill="black"/>
<path d="M285.188 207.212C287.846 207.212 290 205.057 290 202.4C290 199.743 287.845 197.588 285.188 197.588C282.531 197.588 280.376 199.743 280.376 202.4C280.376 205.057 282.53 207.212 285.188 207.212Z" fill="black"/>
<path d="M85.015 106.806C86.275 102.526 87.534 104.834 87.534 104.834C87.684 105.644 87.614 107.106 87.614 107.106C87.544 108.568 87.298 112.136 87.298 112.136C87.052 115.704 87.008 119.857 87.008 119.857C86.965 124.011 86.925 128.994 86.925 128.994C86.886 133.978 86.839 138.934 86.839 138.934C86.792 143.891 86.644 149.077 86.644 149.077C86.496 154.263 86.342 158.904 86.342 158.904C86.188 163.545 85.998 167.618 85.998 167.618C85.809 171.692 85.66 175.368 85.66 175.368C85.512 179.045 85.361 182.365 85.361 182.365C85.21 185.685 85.173 188.487 85.173 188.487C85.136 191.289 85.185 193.342 85.185 193.342C85.234 195.395 85.019 196.515 85.019 196.515C84.804 197.635 83.524 196.777 83.524 196.777C82.244 195.92 82.572 192.751 82.572 192.751C82.9 189.583 82.968 183.76 82.968 183.76C83.036 177.937 83.069 170.822 83.069 170.822C83.102 163.707 83.118 155.996 83.118 155.996C83.134 148.285 83.138 140.377 83.138 140.377C83.143 132.469 83.136 124.84 83.136 124.84C83.129 117.211 83.097 110.666 83.097 110.666C83.065 104.121 82.979 99.452 82.979 99.452C82.894 94.783 82.712 92.064 82.712 92.064C82.53 89.345 84.21 89.111 84.21 89.111C85.89 88.877 86.141 91.74 86.141 91.74C86.392 94.602 87.374 99.197 87.374 99.197C88.357 103.792 89.917 108.279 89.917 108.279C91.478 112.766 93.51 116.9 93.51 116.9C95.542 121.034 98.009 124.319 98.009 124.319C100.476 127.605 103.342 130.189 103.342 130.189C106.208 132.773 109.211 134.378 109.211 134.378C112.213 135.983 115.151 136.552 115.151 136.552C118.089 137.12 120.796 136.657 120.796 136.657C123.504 136.193 126.049 134.527 126.049 134.527C128.594 132.861 130.839 129.947 130.839 129.947C133.084 127.033 134.71 123.155 134.71 123.155C136.336 119.277 137.29 115.004 137.29 115.004C138.243 110.731 138.692 106.1 138.692 106.1C139.141 101.47 139.332 97.103 139.332 97.103C139.523 92.736 139.547 89.2 139.547 89.2C139.572 85.663 139.535 83.456 139.535 83.456C139.499 81.249 141.292 81.403 141.292 81.403C143.085 81.558 143.155 85.032 143.155 85.032C143.225 88.506 143.84 94.3 143.84 94.3C144.455 100.094 145.226 106.988 145.226 106.988C145.997 113.883 146.831 121.269 146.831 121.269C147.665 128.655 148.42 136.436 148.42 136.436C149.176 144.216 149.931 152.321 149.931 152.321C150.687 160.425 151.538 168.826 151.538 168.826C152.389 177.227 153.339 185.473 153.339 185.473C154.289 193.72 155.256 201.39 155.256 201.39C156.223 209.061 157.074 215.55 157.074 215.55C157.925 222.039 158.696 227.227 158.696 227.227C159.467 232.415 160.144 236.734 160.144 236.734C160.821 241.053 161.422 244.162 161.422 244.162C162.024 247.27 162.495 248.926 162.495 248.926C162.066 253.659 160.403 250.413 160.403 250.413C160.313 248.497 159.899 245.247 159.899 245.247C159.485 241.996 158.904 237.603 158.904 237.603C158.323 233.21 157.654 227.946 157.654 227.946C156.985 222.682 156.2 216.145 156.2 216.145C155.415 209.608 154.474 201.918 154.474 201.918C153.533 194.229 152.588 185.973 152.588 185.973C151.643 177.718 150.778 169.321 150.778 169.321C149.913 160.925 149.142 152.829 149.142 152.829C148.371 144.733 147.596 136.971 147.596 136.971C146.822 129.209 145.959 121.846 145.959 121.846C145.097 114.483 144.242 107.65 144.242 107.65C143.387 100.817 142.426 95.28 142.426 95.28C141.465 89.743 140.489 87.087 140.489 87.087C139.514 84.431 140.663 83.783 140.663 83.783C141.812 83.135 141.504 84.867 141.504 84.867C141.196 86.599 141.038 90.062 141.038 90.062C140.88 93.525 140.649 97.887 140.649 97.887C140.418 102.249 139.994 106.952 139.994 106.952C139.57 111.655 138.612 116.044 138.612 116.044C137.654 120.433 136.034 124.511 136.034 124.511C134.414 128.589 132.109 131.815 132.109 131.815C129.804 135.041 126.995 136.986 126.995 136.986C124.187 138.931 121.1 139.393 121.1 139.393C118.013 139.855 114.824 139.119 114.824 139.119C111.635 138.383 108.484 136.58 108.484 136.58C105.333 134.777 102.381 132.047 102.381 132.047C99.429 129.317 96.931 125.856 96.931 125.856C94.433 122.394 92.373 118.164 92.373 118.164C90.313 113.934 88.711 109.4 88.711 109.4C87.109 104.866 85.758 100.543 85.758 100.543C84.407 96.22 83.32 94.17 83.32 94.17C82.233 92.12 83.392 91.365 83.392 91.365C84.551 90.61 84.369 93.046 84.369 93.046C84.187 95.482 84.102 100.062 84.102 100.062C84.017 104.643 83.984 111.151 83.984 111.151C83.952 117.66 83.945 125.281 83.945 125.281C83.938 132.902 83.943 140.816 83.943 140.816C83.948 148.729 83.963 156.458 83.963 156.458C83.979 164.187 84.029 171.343 84.029 171.343C84.079 178.499 84.326 184.482 84.326 184.482C84.573 190.464 85.084 194.03 85.084 194.03C85.595 197.596 84.481 198.365 84.481 198.365C83.367 199.134 83.152 197.884 83.152 197.884C82.937 196.634 83.086 194.455 83.086 194.455C83.235 192.276 83.38 189.403 83.38 189.403C83.525 186.53 83.739 183.172 83.739 183.172C83.953 179.815 84.163 176.107 84.163 176.107C84.373 172.399 84.635 168.292 84.635 168.292C84.897 164.184 85.108 159.525 85.108 159.525C85.319 154.866 85.443 149.7 85.443 149.7C85.567 144.534 85.613 139.588 85.613 139.588C85.659 134.641 85.62 129.734 85.62 129.734C85.581 124.827 85.537 120.763 85.537 120.763C85.494 116.699 85.247 113.516 85.247 113.516C85.001 110.333 84.931 109.051 84.931 109.051C84.865 107.772 85.015 106.806 85.015 106.806Z" stroke="black" stroke-linejoin="round" mask="url(#path-1-outside-1)"/>
<path d="M21.452 125.695C17.506 124.063 21.207 121.595 21.207 121.595C22.623 121.421 25.35 121.437 25.35 121.437C28.077 121.452 34.669 121.378 34.669 121.378C41.26 121.304 50.407 120.988 50.407 120.988C59.553 120.672 70.424 120.479 70.424 120.479C81.294 120.286 92.763 120.07 92.763 120.07C104.232 119.854 115.761 119.673 115.761 119.673C127.29 119.492 137.656 119.349 137.656 119.349C148.022 119.206 156.258 119.147 156.258 119.147C164.493 119.088 169.968 118.953 169.968 118.953C175.442 118.817 178.37 118.533 178.37 118.533C181.297 118.248 181.346 119.441 181.346 119.441C181.394 120.633 177.438 120.627 177.438 120.627C173.482 120.62 164.986 121.309 164.986 121.309C156.49 121.997 144.804 123.336 144.804 123.336C133.118 124.674 120.212 126.475 120.212 126.475C107.306 128.276 94.893 130.383 94.893 130.383C82.479 132.49 71.006 134.678 71.006 134.678C59.533 136.866 49.718 138.84 49.718 138.84C39.904 140.814 32.321 142.56 32.321 142.56C24.738 144.306 19.902 145.767 19.902 145.767C15.066 147.229 12.959 148.23 12.959 148.23C10.852 149.232 11.305 148.786 11.305 148.786C11.758 148.34 15.395 149.576 15.395 149.576C19.031 150.812 26.584 151.528 26.584 151.528C34.136 152.244 44.927 152.201 44.927 152.201C55.717 152.158 69.023 151.611 69.023 151.611C82.329 151.064 97.538 150.284 97.538 150.284C112.747 149.504 129.158 148.94 129.158 148.94C145.57 148.376 162.098 148.266 162.098 148.266C178.626 148.156 193.769 148.577 193.769 148.577C208.912 148.998 221.261 149.736 221.261 149.736C233.61 150.473 242.529 151.257 242.529 151.257C251.448 152.04 257.156 152.489 257.156 152.489C262.863 152.937 265.882 152.952 265.882 152.952C268.9 152.967 270.173 152.656 270.173 152.656C273.912 154.88 269.936 156.332 269.936 156.332C268.72 155.772 265.737 155.183 265.737 155.183C262.755 154.594 257.065 153.864 257.065 153.864C251.375 153.134 242.472 152.205 242.472 152.205C233.569 151.276 221.231 150.467 221.231 150.467C208.894 149.658 193.758 149.21 193.758 149.21C178.623 148.762 162.101 148.874 162.101 148.874C145.579 148.986 129.173 149.574 129.173 149.574C112.767 150.161 97.561 150.988 97.561 150.988C82.355 151.814 69.046 152.446 69.046 152.446C55.737 153.078 44.928 153.303 44.928 153.303C34.119 153.529 26.5 153.322 26.5 153.322C18.881 153.115 14.808 153.106 14.808 153.106C10.735 153.097 10.103 150.978 10.103 150.978C9.471 148.859 12.08 147.807 12.08 147.807C14.689 146.754 19.614 145.362 19.614 145.362C24.539 143.969 32.157 142.257 32.157 142.257C39.775 140.544 49.602 138.589 49.602 138.589C59.429 136.633 70.909 134.453 70.909 134.453C82.389 132.273 94.811 130.168 94.811 130.168C107.233 128.063 120.142 126.25 120.142 126.25C133.051 124.437 144.733 123.053 144.733 123.053C156.416 121.67 164.889 120.815 164.889 120.815C173.363 119.96 177.256 119.349 177.256 119.349C181.149 118.738 181.24 119.931 181.24 119.931C181.331 121.123 178.388 120.839 178.388 120.839C175.444 120.554 169.97 120.419 169.97 120.419C164.495 120.283 156.262 120.225 156.262 120.225C148.029 120.166 137.665 120.262 137.665 120.262C127.301 120.358 115.773 120.542 115.773 120.542C104.245 120.726 92.777 120.965 92.777 120.965C81.309 121.204 70.443 121.475 70.443 121.475C59.577 121.747 50.447 122.25 50.447 122.25C41.316 122.754 34.774 123.589 34.774 123.589C28.232 124.424 25.57 125.014 25.57 125.014C22.903 125.596 21.452 125.695 21.452 125.695Z" stroke="black" stroke-linejoin="round" mask="url(#path-1-outside-1)"/>
<path d="M200.85 179.194C178.324 133.386 202.111 177.77 202.111 177.77C223.593 221.544 200.85 179.194 200.85 179.194Z" stroke="black" stroke-linejoin="round" mask="url(#path-1-outside-1)"/>
<path d="M188.249 140.87C187.904 136.379 190.503 137.767 190.503 137.767C191.033 138.409 191.437 139.179 191.437 139.179C191.84 139.95 192.311 141.186 192.311 141.186C192.782 142.422 192.785 142.242 192.785 142.242C192.788 142.062 193.249 141.714 193.249 141.714C193.71 141.366 195.453 140.03 195.453 140.03C199.317 138.607 197.379 143.378 197.379 143.378C195.962 145.384 194.843 146.201 194.843 146.201C193.724 147.018 192.27 146.406 192.27 146.406C190.816 145.795 189.956 144.515 189.956 144.515C189.096 143.235 188.802 142.519 188.802 142.519C188.509 141.805 188.249 140.87 188.249 140.87Z" stroke="black" stroke-linejoin="round" mask="url(#path-1-outside-1)"/>
<path d="M171.379 133.335C174.188 135.255 170.269 133.546 170.269 133.546C169.055 132.885 168.099 132.583 168.099 132.583C167.143 132.281 165.347 131.646 165.347 131.646C163.551 131.011 162.409 131.054 162.409 131.054C161.267 131.097 160.626 131.407 160.626 131.407C159.985 131.717 159.759 132.178 159.759 132.178C159.533 132.638 159.462 133.544 159.462 133.544C159.391 134.45 159.704 135.555 159.704 135.555C160.017 136.66 160.738 137.618 160.738 137.618C161.459 138.576 162.498 139.288 162.498 139.288C163.537 140 164.752 140.274 164.752 140.274C165.966 140.548 167.156 140.326 167.156 140.326C168.346 140.104 169.303 139.425 169.303 139.425C170.261 138.746 170.943 137.69 170.943 137.69C171.626 136.634 171.925 135.563 171.925 135.563C172.225 134.492 172.692 133.223 172.692 133.223C173.159 131.954 174.769 132.056 174.769 132.056C176.379 132.158 177.057 133.554 177.057 133.554C177.735 134.951 178.499 136.798 178.499 136.798C179.263 138.645 179.836 139.708 179.836 139.708C180.409 140.771 180.89 142.155 180.89 142.155C181.017 147.102 178.214 144.758 178.214 144.758C177.62 143.421 177.32 142.197 177.32 142.197C177.02 140.973 176.111 139.451 176.111 139.451C175.202 137.929 174.44 137.126 174.44 137.126C173.678 136.322 174.176 135.684 174.176 135.684C174.674 135.045 174.882 135.745 174.882 135.745C175.09 136.444 174.607 137.886 174.607 137.886C174.123 139.327 173.206 140.73 173.206 140.73C172.289 142.133 170.841 143.137 170.841 143.137C169.393 144.141 167.648 144.457 167.648 144.457C165.904 144.773 164.174 144.396 164.174 144.396C162.444 144.02 160.998 143.085 160.998 143.085C159.552 142.15 158.526 140.845 158.526 140.845C157.501 139.539 156.957 138.035 156.957 138.035C156.414 136.531 156.436 135.07 156.436 135.07C156.458 133.61 157.238 132.314 157.238 132.314C158.018 131.019 159.388 130.529 159.388 130.529C160.759 130.039 162.408 130.165 162.408 130.165C164.057 130.291 166.081 130.95 166.081 130.95C168.105 131.61 169.127 132.084 169.127 132.084C170.15 132.559 171.379 133.335 171.379 133.335Z" stroke="black" stroke-linejoin="round" mask="url(#path-1-outside-1)"/>
<path d="M185.659 138.039C184.455 133.814 187.506 134.531 187.506 134.531C188.166 135.134 188.638 135.321 188.638 135.321C189.11 135.508 189.76 136.17 189.76 136.17C190.41 136.832 190.44 136.66 190.44 136.66C190.47 136.488 191.067 136.037 191.067 136.037C191.664 135.586 192.526 134.78 192.526 134.78C193.388 133.974 194.843 133.208 194.843 133.208C199.036 133.097 196.5 137.155 196.5 137.155C195.323 138.102 194.665 138.822 194.665 138.822C194.007 139.543 193.153 140.359 193.153 140.359C192.299 141.176 190.826 141.266 190.826 141.266C189.353 141.356 188.22 140.777 188.22 140.777C187.087 140.197 186.647 139.574 186.647 139.574C186.207 138.952 185.659 138.039 185.659 138.039Z" stroke="black" stroke-linejoin="round" mask="url(#path-1-outside-1)"/>
<path d="M209.523 143.837C212.181 143.837 214.335 141.682 214.335 139.025C214.335 136.367 212.18 134.213 209.523 134.213C206.866 134.213 204.711 136.368 204.711 139.025C204.71 141.683 206.865 143.837 209.523 143.837Z" stroke="black" stroke-linejoin="round" mask="url(#path-1-outside-1)"/>
<path d="M213.518 121.351C214.232 117.042 216.075 118.834 216.075 118.834C216.401 119.382 216.535 121.009 216.535 121.009C216.669 122.636 217.015 125.647 217.015 125.647C217.361 128.658 217.843 131.183 217.843 131.183C218.324 133.708 218.215 133.615 218.215 133.615C218.105 133.522 218.204 133.077 218.204 133.077C218.303 132.632 219.229 131.547 219.229 131.547C220.155 130.461 221.645 130.165 221.645 130.165C223.135 129.869 224.005 130.585 224.005 130.585C224.875 131.301 225.687 132.399 225.687 132.399C226.5 133.497 227.043 134.664 227.043 134.664C227.587 135.831 227.666 137.004 227.666 137.004C227.745 138.177 227.265 139.234 227.265 139.234C226.785 140.291 225.926 140.995 225.926 140.995C225.067 141.7 223.962 142.147 223.962 142.147C222.856 142.595 221.35 142.786 221.35 142.786C217.189 142.679 220.786 141.475 220.786 141.475C222.091 141.215 222.698 140.953 222.698 140.953C223.305 140.69 223.731 140.333 223.731 140.333C224.157 139.976 224.321 139.662 224.321 139.662C224.485 139.348 224.515 138.822 224.515 138.822C224.545 138.296 224.229 137.554 224.229 137.554C223.913 136.812 223.295 136.181 223.295 136.181C222.677 135.55 222.08 135.28 222.08 135.28C221.483 135.01 221.778 134.711 221.778 134.711C222.073 134.412 221.609 135.258 221.609 135.258C221.145 136.104 220.165 137.05 220.165 137.05C219.185 137.996 217.841 136.714 217.841 136.714C216.497 135.432 216.065 132.744 216.065 132.744C215.634 130.055 214.951 127.427 214.951 127.427C214.268 124.799 213.867 123.482 213.867 123.482C213.464 122.167 213.518 121.351 213.518 121.351Z" stroke="black" stroke-linejoin="round" mask="url(#path-1-outside-1)"/>
<path d="M243.71 143.773C242.577 145.125 241.601 141.606 241.601 141.606C241.772 140.861 241.464 140.773 241.464 140.773C241.156 140.685 240.928 140.407 240.928 140.407C240.699 140.128 240.774 140.294 240.774 140.294C240.848 140.46 240.716 140.584 240.716 140.584C240.584 140.708 240.483 141.067 240.483 141.067C240.382 141.425 240.433 142.091 240.433 142.091C240.484 142.757 240.848 143.477 240.848 143.477C241.213 144.197 241.849 144.693 241.849 144.693C242.486 145.189 243.868 145.762 243.868 145.762C247.212 148.949 242.92 149.999 242.92 149.999C241.259 149.629 240.044 148.754 240.044 148.754C238.829 147.879 238.135 146.715 238.135 146.715C237.441 145.55 237.226 144.307 237.226 144.307C237.011 143.064 237.362 141.893 237.362 141.893C237.712 140.721 238.662 140.023 238.662 140.023C239.612 139.324 241.047 139.48 241.047 139.48C242.482 139.636 243.08 140.631 243.08 140.631C243.678 141.627 243.742 142.312 243.742 142.312C243.804 142.997 243.71 143.773 243.71 143.773Z" stroke="black" stroke-linejoin="round" mask="url(#path-1-outside-1)"/>
<path d="M250.525 87.257C251.878 82.86 252.956 85.457 252.956 85.457C252.996 86.487 252.702 89.875 252.702 89.875C252.407 93.262 252.293 99.864 252.293 99.864C252.179 106.466 252.335 114.317 252.335 114.317C252.492 122.168 252.961 128.528 252.961 128.528C253.43 134.888 254.013 139.342 254.013 139.342C254.595 143.796 255.246 146.872 255.246 146.872C255.897 149.948 256.357 152.24 256.357 152.24C256.817 154.532 257.191 155.637 257.191 155.637C256.48 160.35 254.676 157.384 254.676 157.384C254.698 155.999 254.442 153.599 254.442 153.599C254.185 151.198 253.741 147.952 253.741 147.952C253.297 144.705 252.88 140.105 252.88 140.105C252.463 135.505 252.09 129.084 252.09 129.084C251.716 122.663 251.501 114.858 251.501 114.858C251.286 107.053 251.065 100.705 251.065 100.705C250.844 94.356 250.596 91.385 250.596 91.385C250.349 88.41 250.525 87.257 250.525 87.257Z" stroke="black" stroke-linejoin="round" mask="url(#path-1-outside-1)"/>
<path d="M116.609 169.667C112.571 167.17 116.898 165.79 116.898 165.79C118.692 166.099 122.266 166.846 122.266 166.846C125.84 167.592 133.978 168.517 133.978 168.517C142.116 169.442 152.719 169.759 152.719 169.759C163.322 170.076 174.329 169.305 174.329 169.305C185.336 168.534 195.171 166.335 195.171 166.335C205.006 164.137 212.995 159.91 212.995 159.91C220.984 155.683 226.406 148.984 226.406 148.984C231.828 142.285 234.489 133.176 234.489 133.176C237.15 124.067 236.891 113.76 236.891 113.76C236.632 103.453 233.706 93.575 233.706 93.575C230.779 83.696 226.345 76.158 226.345 76.158C221.911 68.619 217.486 64.213 217.486 64.213C213.062 59.807 209.707 58.84 209.707 58.84C206.353 57.873 203.391 60.626 203.391 60.626C200.43 63.379 197.447 70.829 197.447 70.829C194.465 78.28 192.244 89.407 192.244 89.407C190.024 100.535 188.99 112.948 188.99 112.948C187.957 125.361 188.166 136.808 188.166 136.808C188.376 148.255 189.559 157.811 189.559 157.811C190.742 167.367 192.383 174.332 192.383 174.332C194.024 181.297 195.571 185.301 195.571 185.301C197.118 189.305 197.891 190.22 197.891 190.22C198.664 191.135 199.356 189.937 199.356 189.937C200.048 188.739 202.766 183.142 202.766 183.142C205.485 177.544 208.729 166.669 208.729 166.669C211.973 155.794 214.582 141.574 214.582 141.574C217.19 127.355 218.206 113.383 218.206 113.383C219.222 99.411 218.663 87.906 218.663 87.906C218.104 76.401 216.582 68.204 216.582 68.204C215.06 60.007 213.116 55.113 213.116 55.113C211.172 50.219 209.819 49.119 209.819 49.119C208.466 48.019 206.942 51.37 206.942 51.37C205.418 54.721 204.146 64.28 204.146 64.28C202.875 73.84 202.949 88.065 202.949 88.065C203.024 102.291 204.757 118.05 204.757 118.05C206.49 133.809 209.325 147.647 209.325 147.647C212.159 161.485 215.059 171.672 215.059 171.672C217.959 181.858 219.908 188.016 219.908 188.016C221.857 194.174 222.514 197.217 222.514 197.217C223.17 200.26 220.459 201.003 220.459 201.003C217.748 201.746 211.708 199.98 211.708 199.98C205.669 198.214 195.583 195.311 195.583 195.311C185.498 192.409 172.903 189.487 172.903 189.487C160.309 186.565 147.897 184.773 147.897 184.773C135.486 182.981 125.381 182.263 125.381 182.263C115.276 181.545 109.015 181.456 109.015 181.456C102.753 181.367 100.405 181.072 100.405 181.072C98.057 180.776 100.429 180.133 100.429 180.133C102.801 179.489 110.559 180.021 110.559 180.021C118.317 180.552 131.027 180.837 131.027 180.837C143.737 181.122 158.88 181.68 158.88 181.68C174.023 182.239 188.381 183.141 188.381 183.141C202.739 184.044 214.641 185.078 214.641 185.078C226.543 186.112 234.261 186.708 234.261 186.708C241.979 187.303 245.803 187.325 245.803 187.325C250.922 188.613 245.716 189.124 245.716 189.124C241.91 188.559 234.202 187.75 234.202 187.75C226.493 186.941 214.599 185.838 214.599 185.838C202.704 184.735 188.354 183.816 188.354 183.816C174.003 182.897 158.865 182.4 158.865 182.4C143.726 181.903 131.02 181.856 131.02 181.856C118.314 181.809 110.558 182.304 110.558 182.304C102.803 182.799 100.426 182.155 100.426 182.155C98.049 181.511 100.403 181.216 100.403 181.216C102.758 180.92 109.031 181.091 109.031 181.091C115.305 181.261 125.422 182.007 125.422 182.007C135.54 182.753 147.971 184.551 147.971 184.551C160.402 186.35 173.028 189.252 173.028 189.252C185.654 192.155 195.801 194.981 195.801 194.981C205.948 197.807 212.039 199.29 212.039 199.29C218.13 200.773 219.794 200.683 219.794 200.683C221.457 200.593 221.197 197.778 221.197 197.778C220.937 194.963 219.16 188.662 219.16 188.662C217.382 182.361 214.55 172.102 214.55 172.102C211.718 161.844 208.903 147.969 208.903 147.969C206.089 134.094 204.33 118.33 204.33 118.33C202.572 102.566 202.391 88.368 202.391 88.368C202.21 74.17 203.099 64.689 203.099 64.689C203.988 55.208 205.71 51.244 205.71 51.244C207.432 47.28 209.799 48.772 209.799 48.772C212.166 50.264 213.979 55.244 213.979 55.244C215.792 60.224 217.224 68.432 217.224 68.432C218.656 76.641 219.168 88.153 219.168 88.153C219.681 99.665 218.655 113.659 218.655 113.659C217.63 127.652 215.074 141.939 215.074 141.939C212.518 156.226 209.457 167.305 209.457 167.305C206.395 178.384 204.262 184.735 204.262 184.735C202.128 191.086 200.178 193.011 200.178 193.011C198.228 194.936 197.046 192.748 197.046 192.748C195.864 190.56 194.527 186.287 194.527 186.287C193.189 182.014 191.641 174.926 191.641 174.926C190.093 167.839 188.956 158.218 188.956 158.218C187.819 148.597 187.631 137.11 187.631 137.11C187.442 125.623 188.453 113.194 188.453 113.194C189.464 100.765 191.585 89.633 191.585 89.633C193.706 78.501 196.475 70.966 196.475 70.966C199.244 63.432 202.616 60.323 202.616 60.323C205.987 57.214 209.808 58.375 209.808 58.375C213.629 59.535 218.056 64.054 218.056 64.054C222.483 68.572 226.914 76.178 226.914 76.178C231.344 83.784 234.292 93.736 234.292 93.736C237.24 103.688 237.525 114.098 237.525 114.098C237.81 124.508 235.144 133.759 235.144 133.759C232.478 143.01 226.948 149.81 226.948 149.81C221.418 156.609 213.313 160.843 213.313 160.843C205.209 165.076 195.309 167.249 195.309 167.249C185.41 169.422 174.369 170.21 174.369 170.21C163.329 170.998 152.7 170.808 152.7 170.808C142.072 170.617 133.887 170.297 133.887 170.297C125.702 169.977 122.054 169.907 122.054 169.907C118.409 169.839 116.609 169.667 116.609 169.667Z" stroke="black" stroke-linejoin="round" mask="url(#path-1-outside-1)"/>
<path d="M285.188 207.212C287.846 207.212 290 205.057 290 202.4C290 199.743 287.845 197.588 285.188 197.588C282.531 197.588 280.376 199.743 280.376 202.4C280.376 205.057 282.53 207.212 285.188 207.212Z" stroke="black" stroke-linejoin="round" mask="url(#path-1-outside-1)"/>
</svg>
