<svg width="600" height="600" viewBox="0 0 600 600" fill="none" xmlns="http://www.w3.org/2000/svg">
<mask id="path-1-outside-1" maskUnits="userSpaceOnUse" x="34" y="112" width="483" height="375" fill="black">
<rect fill="white" x="34" y="112" width="483" height="375"/>
<path d="M139.468 232.864C141.8 239.911 147.061 244.714 152.635 248.981C160.741 255.186 169.251 260.862 177.595 266.755C180.322 268.681 182.879 270.804 184.792 273.561C186.366 275.829 187.263 278.437 185.104 280.696C182.981 282.918 180.176 283.753 177.206 282.218C172.233 279.648 168.709 275.339 164.784 271.539C159.922 266.832 155.061 262.137 149.551 258.182C148.152 257.178 146.677 256.236 145.129 255.489C138.11 252.104 134.766 253.306 131.216 260.455C129.165 260.003 129.23 258.249 129.189 256.803C129.071 252.619 129.182 248.43 129.099 244.245C128.953 236.83 124.555 233.564 117.325 235.519C108.31 237.956 101.86 244.161 95.5987 250.576C93.2223 253.011 91.0437 255.64 88.4566 257.96C90.055 246.881 94.094 237.239 103.886 230.819C105.259 229.919 107.705 229.506 107.374 227.489C107.065 225.608 104.915 224.799 103.126 224.18C94.0567 221.047 84.8791 219.956 75.4422 222.86C81.2565 217.03 88.6674 215.114 96.4191 214.144C100.427 213.643 104.48 213.512 108.508 213.174C111.342 212.935 113.578 211.544 114.448 208.859C115.328 206.143 113.572 204.229 111.597 202.591C106.768 198.589 101.246 195.816 95.4764 193.486C95.0332 192.769 94.4435 192.37 93.5614 192.615C93.2345 192.438 92.9075 192.26 92.5806 192.085C92.5996 191.625 92.617 191.163 92.6352 190.702C102.615 192.003 112.193 195.377 122.235 196.394C125.832 196.758 129.391 197.416 132.939 196.135C136.313 194.917 136.994 193.139 134.751 190.373C133.22 188.483 131.253 186.95 129.509 185.228C115.629 171.513 105.057 155.772 100.325 136.606C98.7487 130.218 98.1762 123.654 99.197 117C101.704 124.009 103.232 131.289 106.309 138.11C114.908 157.172 128.52 171.216 147.508 179.904C150.452 181.251 154.395 183.756 157.115 180.576C159.643 177.619 157.097 173.898 155.681 170.871C150.281 159.316 147.382 147.254 147.44 134.481C147.46 129.848 148.365 125.387 150.199 120.901C150.708 125.369 151.068 129.861 151.753 134.303C154.473 151.932 161.703 167.794 172.657 181.597C180.291 191.215 185.299 200.984 185.396 213.595C185.487 225.358 192.187 234.4 200.744 242.006C205.602 246.323 210.964 249.926 216.627 253.133C222.235 256.308 224.246 263.319 221.679 269.777C219.077 276.323 207.682 288 200.552 291.355C200.619 275.65 191.097 266.555 178.758 259.238C166.279 251.839 153.04 245.514 142.895 234.697C142.428 234.198 142.147 233.525 141.781 232.936C141.232 231.117 140.135 229.68 138.665 227.983C138.399 230.058 138.234 231.59 139.468 232.864ZM172.046 229.735C171.618 227.133 169.635 226.395 167.514 225.767C161.689 224.043 157.091 220.899 155.086 214.835C154.872 214.188 154.542 213.332 154.788 212.831C155.275 211.842 156.266 212.302 157.072 212.567C159.265 213.286 161.45 214.024 163.916 214.848C160.207 206.592 151.225 202.549 142.825 205.39C146.257 207.411 147.806 210.731 148.511 213.971C150.511 223.178 162.273 229.246 172.046 229.735ZM204.936 273.843C205.2 268.562 203.89 264.348 202.791 260.193C202.312 258.382 200.261 258.754 198.698 259.31C197.257 259.823 196.45 260.918 197.196 262.291C199.257 266.086 200.972 270.144 204.936 273.843ZM211.581 268.565C212.232 269.417 210.762 271.482 213.065 271.292C215.335 271.104 218.289 263.46 217.004 261.455C216.384 260.487 215.648 259.5 214.298 259.759C213.01 260.005 213.127 261.213 212.924 262.156C212.474 264.25 212.044 266.348 211.581 268.565Z"/>
<path d="M381.84 469.868C349.838 466.252 321.196 454.633 296.009 434.637C298.708 434.577 299.138 434.819 302.287 436.788C325.189 451.111 349.945 459.671 377.049 461.388C399.68 462.821 421.701 459.971 443.14 452.803C453.383 449.379 463.346 445.211 472.746 439.752C475.634 438.074 475.07 436.992 472.936 435.602C469.661 433.468 466.274 431.535 462.011 430.937C482.22 427.877 498.459 417.862 512.1 402.952C512.156 417.712 498.188 451.375 482.047 463.363C482.87 458.731 483.885 454.503 483.228 450.113C482.836 447.493 482.41 446.357 479.624 448.157C456.173 463.318 430.408 472.664 403.117 477.844C370.351 484.064 337.583 483.604 305.053 476.183C290.002 472.749 275.396 467.764 261.483 460.938C260.321 460.368 259.093 459.933 257.928 459.37C255.609 458.249 255.066 459.463 255.222 461.446C255.509 465.08 256.717 468.484 257.991 471.861C258.332 472.766 259.251 473.744 258.037 474.487C257.17 475.018 256.42 474.079 255.781 473.582C249.806 468.935 246.662 462.505 244.837 455.403C244.083 452.466 242.52 450.771 239.943 449.298C235.704 446.876 231.557 444.199 227.726 441.181C224.425 438.581 223.08 440.454 222.127 443.097C220.106 448.704 220.898 454.489 221.454 460.246C221.734 463.153 223.079 466.062 221.637 469.44C215.847 465.305 213.052 459.506 210.788 453.431C207.826 445.479 206.738 437.187 207.249 428.733C207.42 425.91 206.553 423.803 204.641 421.788C199.468 416.333 193.608 411.645 188.03 406.642C187.068 405.78 185.913 405.154 185.91 403.405C190.38 403.535 194.052 405.779 197.596 407.712C217.571 418.601 237.352 429.844 257.278 440.823C283.254 455.135 310.72 465.098 340.215 469.272C354.032 471.226 367.83 471.301 381.84 469.868ZM490.727 426.163C484.88 428.209 480.28 429.818 475.68 431.428C477.96 432.248 478.608 436.24 481.247 434.906C484.717 433.153 488.001 430.797 490.727 426.163Z"/>
<path d="M266.934 411.386C244.076 404.256 221.766 395.749 200.453 384.769C180.647 374.565 161.835 362.997 147.468 345.453C138.208 334.146 131.022 321.566 124.733 308.43C121.687 302.067 118.872 295.581 115.114 289.579C108.897 279.648 100.994 278.552 92.3065 286.592C87.4592 291.079 83.0092 296.001 78.0892 300.402C72.8282 305.109 66.0261 303.008 63.9403 296.141C61.9829 289.697 63.047 283.231 64.7452 276.934C67.9853 264.917 73.3208 253.733 78.9313 242.681C79.3736 241.81 80.1038 241.085 81.3493 239.43C80.6268 244.092 79.9677 247.777 79.502 251.487C78.711 257.783 77.6304 264.078 78.7639 270.455C79.149 272.621 79.4889 275.068 81.7005 275.928C84.3639 276.964 86.4853 274.96 88.134 273.292C91.9717 269.408 95.5432 265.257 99.145 261.146C105.535 253.855 110.87 253.919 116.837 261.474C123.356 269.73 126.636 279.705 131.102 289.011C148.934 326.17 173.662 357.122 209.188 378.963C228.375 390.758 248.16 401.259 268.945 409.896C268.789 411.088 267.711 411.033 266.934 411.386Z"/>
<path d="M447.487 147.249C440.63 151.383 433.471 154.535 426.398 157.812C410.979 164.955 395.309 171.491 379.139 176.786C359.86 183.1 340.294 187.806 319.833 187.549C304.321 187.354 289.099 184.861 273.94 181.78C266.877 180.344 259.778 178.999 252.636 178.057C243.487 176.851 237.68 181.131 235.658 190.155C234.65 194.652 233.83 199.191 232.971 203.72C230.584 216.292 214.811 219.132 206.116 214.815C199.815 211.687 195.056 206.916 190.404 201.381C193.082 200.557 194.431 202.443 195.969 203.375C199.479 205.503 203.11 207.15 207.245 207.398C212.35 207.706 215.708 205.611 217.872 200.923C220.286 195.696 220.935 190.17 221.01 184.47C221.094 178.132 220.469 171.753 221.796 165.464C223.427 157.728 227.841 154.595 235.598 156.351C249.092 159.407 262.471 162.992 276.093 165.462C306.66 171.005 337.236 173.5 368.167 167.613C392.587 162.965 416.331 156.073 439.903 148.402C441.4 147.914 442.931 147.404 444.481 147.252C445.355 147.165 446.213 146.175 447.487 147.249Z"/>
<path d="M64.0522 259.008C63.0626 265.177 59.9847 270.645 58.1313 276.54C51.2182 298.534 49.5331 320.911 51.997 343.725C52.3058 346.584 53.2849 347.363 56.3377 347.228C68.7468 346.682 80.5349 348.525 90.4288 359.293C91.8121 340.298 93.9673 322.652 106.049 308.208C104.113 314.468 102.7 320.797 101.668 327.268C99.6966 339.626 101.057 351.733 103.344 363.845C104.043 367.545 105.639 368.635 109.833 367.992C122.525 366.047 134.783 369.056 146.874 372.705C175.888 381.46 202.529 395.435 228.905 409.989C228.597 410.349 228.291 410.709 227.985 411.07C207.951 402.583 187.685 394.734 166.74 388.737C157.292 386.032 147.687 384.05 137.977 382.63C121.072 380.158 106.106 383.489 94.5528 398.626C93.8477 394.879 93.4088 392.014 92.7609 389.197C90.2588 378.31 85.3197 369.251 74.2089 364.931C67.301 362.245 60.3194 363.038 53.3335 364.532C52.3535 364.741 51.4159 365.142 50.4489 365.422C41.4578 368.026 41.4318 368.028 40.2046 358.853C38.4995 346.098 37.1439 333.316 38.6521 320.442C40.2835 306.515 45.5054 293.703 51.396 281.162C54.4479 274.665 58.022 268.413 61.3315 262.035C61.9829 260.78 62.5084 259.462 64.014 258.977C64.0175 258.977 64.0522 259.008 64.0522 259.008Z"/>
<path d="M232.997 230.443C244.659 234.607 255.317 240.451 264.212 249.205C265.656 250.625 266.576 250.898 267.812 248.866C277.461 232.997 291.25 224.691 310.19 225.936C310.41 225.95 310.649 225.671 311.475 225.161C298.645 208.96 279.74 203.098 261.556 194.878C266.94 194.023 271.277 196.314 275.597 197.442C290.164 201.248 304.075 206.738 316.086 216.227C318.781 218.357 320.832 222.842 323.714 222.559C326.049 222.329 327.787 217.758 330.116 215.439C340.249 205.347 352.521 198.373 365.176 192.068C383.378 182.997 402.092 175.13 421.5 168.981C423.557 168.33 425.26 166.239 428.249 167.687C421.406 170.853 414.788 173.75 408.315 176.94C388.148 186.883 368.119 197.077 350.98 211.979C341.387 220.319 336.033 230.536 337.401 243.568C337.698 246.391 336.611 245.897 334.724 245.286C328.833 243.378 322.91 241.796 316.662 241.13C296.919 239.025 280.29 247.688 271.581 265.571C269.659 269.521 268.906 268.464 267.087 265.76C256.831 250.515 243.573 238.647 227.026 230.546C228.236 228.53 229.98 230.551 231.378 229.971C231.794 230.092 232.21 230.213 232.624 230.334C232.622 230.334 232.756 230.628 232.756 230.628L232.997 230.443Z"/>
<path d="M349.556 385.64V409.158C349.556 411.824 348.909 414.135 347.615 416.093C346.321 418.034 344.465 419.515 342.046 420.535C339.627 421.555 336.767 422.065 333.467 422.065C328.479 422.065 324.551 420.93 321.682 418.66C318.813 416.389 317.35 413.28 317.294 409.331V385.64H327.223V409.504C327.335 413.436 329.417 415.402 333.467 415.402C335.511 415.402 337.058 414.908 338.108 413.921C339.158 412.934 339.683 411.33 339.683 409.109V385.64H349.556Z"/>
<path d="M387.893 392.327H375.601V421.572H365.729V392.327H353.662V385.64H387.893V392.327Z"/>
<path d="M417.877 407.258H401.957V421.572H392.084V385.64H419.48V392.327H401.957V400.595H417.877V407.258Z"/>
<path d="M439.478 411.799L447.635 385.64H458.661L444.879 421.572H434.078L420.408 385.64H431.349L439.478 411.799Z"/>
</mask>
<path d="M139.468 232.864C141.8 239.911 147.061 244.714 152.635 248.981C160.741 255.186 169.251 260.862 177.595 266.755C180.322 268.681 182.879 270.804 184.792 273.561C186.366 275.829 187.263 278.437 185.104 280.696C182.981 282.918 180.176 283.753 177.206 282.218C172.233 279.648 168.709 275.339 164.784 271.539C159.922 266.832 155.061 262.137 149.551 258.182C148.152 257.178 146.677 256.236 145.129 255.489C138.11 252.104 134.766 253.306 131.216 260.455C129.165 260.003 129.23 258.249 129.189 256.803C129.071 252.619 129.182 248.43 129.099 244.245C128.953 236.83 124.555 233.564 117.325 235.519C108.31 237.956 101.86 244.161 95.5987 250.576C93.2223 253.011 91.0437 255.64 88.4566 257.96C90.055 246.881 94.094 237.239 103.886 230.819C105.259 229.919 107.705 229.506 107.374 227.489C107.065 225.608 104.915 224.799 103.126 224.18C94.0567 221.047 84.8791 219.956 75.4422 222.86C81.2565 217.03 88.6674 215.114 96.4191 214.144C100.427 213.643 104.48 213.512 108.508 213.174C111.342 212.935 113.578 211.544 114.448 208.859C115.328 206.143 113.572 204.229 111.597 202.591C106.768 198.589 101.246 195.816 95.4764 193.486C95.0332 192.769 94.4435 192.37 93.5614 192.615C93.2345 192.438 92.9075 192.26 92.5806 192.085C92.5996 191.625 92.617 191.163 92.6352 190.702C102.615 192.003 112.193 195.377 122.235 196.394C125.832 196.758 129.391 197.416 132.939 196.135C136.313 194.917 136.994 193.139 134.751 190.373C133.22 188.483 131.253 186.95 129.509 185.228C115.629 171.513 105.057 155.772 100.325 136.606C98.7487 130.218 98.1762 123.654 99.197 117C101.704 124.009 103.232 131.289 106.309 138.11C114.908 157.172 128.52 171.216 147.508 179.904C150.452 181.251 154.395 183.756 157.115 180.576C159.643 177.619 157.097 173.898 155.681 170.871C150.281 159.316 147.382 147.254 147.44 134.481C147.46 129.848 148.365 125.387 150.199 120.901C150.708 125.369 151.068 129.861 151.753 134.303C154.473 151.932 161.703 167.794 172.657 181.597C180.291 191.215 185.299 200.984 185.396 213.595C185.487 225.358 192.187 234.4 200.744 242.006C205.602 246.323 210.964 249.926 216.627 253.133C222.235 256.308 224.246 263.319 221.679 269.777C219.077 276.323 207.682 288 200.552 291.355C200.619 275.65 191.097 266.555 178.758 259.238C166.279 251.839 153.04 245.514 142.895 234.697C142.428 234.198 142.147 233.525 141.781 232.936C141.232 231.117 140.135 229.68 138.665 227.983C138.399 230.058 138.234 231.59 139.468 232.864ZM172.046 229.735C171.618 227.133 169.635 226.395 167.514 225.767C161.689 224.043 157.091 220.899 155.086 214.835C154.872 214.188 154.542 213.332 154.788 212.831C155.275 211.842 156.266 212.302 157.072 212.567C159.265 213.286 161.45 214.024 163.916 214.848C160.207 206.592 151.225 202.549 142.825 205.39C146.257 207.411 147.806 210.731 148.511 213.971C150.511 223.178 162.273 229.246 172.046 229.735ZM204.936 273.843C205.2 268.562 203.89 264.348 202.791 260.193C202.312 258.382 200.261 258.754 198.698 259.31C197.257 259.823 196.45 260.918 197.196 262.291C199.257 266.086 200.972 270.144 204.936 273.843ZM211.581 268.565C212.232 269.417 210.762 271.482 213.065 271.292C215.335 271.104 218.289 263.46 217.004 261.455C216.384 260.487 215.648 259.5 214.298 259.759C213.01 260.005 213.127 261.213 212.924 262.156C212.474 264.25 212.044 266.348 211.581 268.565Z" fill="black"/>
<path d="M381.84 469.868C349.838 466.252 321.196 454.633 296.009 434.637C298.708 434.577 299.138 434.819 302.287 436.788C325.189 451.111 349.945 459.671 377.049 461.388C399.68 462.821 421.701 459.971 443.14 452.803C453.383 449.379 463.346 445.211 472.746 439.752C475.634 438.074 475.07 436.992 472.936 435.602C469.661 433.468 466.274 431.535 462.011 430.937C482.22 427.877 498.459 417.862 512.1 402.952C512.156 417.712 498.188 451.375 482.047 463.363C482.87 458.731 483.885 454.503 483.228 450.113C482.836 447.493 482.41 446.357 479.624 448.157C456.173 463.318 430.408 472.664 403.117 477.844C370.351 484.064 337.583 483.604 305.053 476.183C290.002 472.749 275.396 467.764 261.483 460.938C260.321 460.368 259.093 459.933 257.928 459.37C255.609 458.249 255.066 459.463 255.222 461.446C255.509 465.08 256.717 468.484 257.991 471.861C258.332 472.766 259.251 473.744 258.037 474.487C257.17 475.018 256.42 474.079 255.781 473.582C249.806 468.935 246.662 462.505 244.837 455.403C244.083 452.466 242.52 450.771 239.943 449.298C235.704 446.876 231.557 444.199 227.726 441.181C224.425 438.581 223.08 440.454 222.127 443.097C220.106 448.704 220.898 454.489 221.454 460.246C221.734 463.153 223.079 466.062 221.637 469.44C215.847 465.305 213.052 459.506 210.788 453.431C207.826 445.479 206.738 437.187 207.249 428.733C207.42 425.91 206.553 423.803 204.641 421.788C199.468 416.333 193.608 411.645 188.03 406.642C187.068 405.78 185.913 405.154 185.91 403.405C190.38 403.535 194.052 405.779 197.596 407.712C217.571 418.601 237.352 429.844 257.278 440.823C283.254 455.135 310.72 465.098 340.215 469.272C354.032 471.226 367.83 471.301 381.84 469.868ZM490.727 426.163C484.88 428.209 480.28 429.818 475.68 431.428C477.96 432.248 478.608 436.24 481.247 434.906C484.717 433.153 488.001 430.797 490.727 426.163Z" fill="black"/>
<path d="M266.934 411.386C244.076 404.256 221.766 395.749 200.453 384.769C180.647 374.565 161.835 362.997 147.468 345.453C138.208 334.146 131.022 321.566 124.733 308.43C121.687 302.067 118.872 295.581 115.114 289.579C108.897 279.648 100.994 278.552 92.3065 286.592C87.4592 291.079 83.0092 296.001 78.0892 300.402C72.8282 305.109 66.0261 303.008 63.9403 296.141C61.9829 289.697 63.047 283.231 64.7452 276.934C67.9853 264.917 73.3208 253.733 78.9313 242.681C79.3736 241.81 80.1038 241.085 81.3493 239.43C80.6268 244.092 79.9677 247.777 79.502 251.487C78.711 257.783 77.6304 264.078 78.7639 270.455C79.149 272.621 79.4889 275.068 81.7005 275.928C84.3639 276.964 86.4853 274.96 88.134 273.292C91.9717 269.408 95.5432 265.257 99.145 261.146C105.535 253.855 110.87 253.919 116.837 261.474C123.356 269.73 126.636 279.705 131.102 289.011C148.934 326.17 173.662 357.122 209.188 378.963C228.375 390.758 248.16 401.259 268.945 409.896C268.789 411.088 267.711 411.033 266.934 411.386Z" fill="black"/>
<path d="M447.487 147.249C440.63 151.383 433.471 154.535 426.398 157.812C410.979 164.955 395.309 171.491 379.139 176.786C359.86 183.1 340.294 187.806 319.833 187.549C304.321 187.354 289.099 184.861 273.94 181.78C266.877 180.344 259.778 178.999 252.636 178.057C243.487 176.851 237.68 181.131 235.658 190.155C234.65 194.652 233.83 199.191 232.971 203.72C230.584 216.292 214.811 219.132 206.116 214.815C199.815 211.687 195.056 206.916 190.404 201.381C193.082 200.557 194.431 202.443 195.969 203.375C199.479 205.503 203.11 207.15 207.245 207.398C212.35 207.706 215.708 205.611 217.872 200.923C220.286 195.696 220.935 190.17 221.01 184.47C221.094 178.132 220.469 171.753 221.796 165.464C223.427 157.728 227.841 154.595 235.598 156.351C249.092 159.407 262.471 162.992 276.093 165.462C306.66 171.005 337.236 173.5 368.167 167.613C392.587 162.965 416.331 156.073 439.903 148.402C441.4 147.914 442.931 147.404 444.481 147.252C445.355 147.165 446.213 146.175 447.487 147.249Z" fill="black"/>
<path d="M64.0522 259.008C63.0626 265.177 59.9847 270.645 58.1313 276.54C51.2182 298.534 49.5331 320.911 51.997 343.725C52.3058 346.584 53.2849 347.363 56.3377 347.228C68.7468 346.682 80.5349 348.525 90.4288 359.293C91.8121 340.298 93.9673 322.652 106.049 308.208C104.113 314.468 102.7 320.797 101.668 327.268C99.6966 339.626 101.057 351.733 103.344 363.845C104.043 367.545 105.639 368.635 109.833 367.992C122.525 366.047 134.783 369.056 146.874 372.705C175.888 381.46 202.529 395.435 228.905 409.989C228.597 410.349 228.291 410.709 227.985 411.07C207.951 402.583 187.685 394.734 166.74 388.737C157.292 386.032 147.687 384.05 137.977 382.63C121.072 380.158 106.106 383.489 94.5528 398.626C93.8477 394.879 93.4088 392.014 92.7609 389.197C90.2588 378.31 85.3197 369.251 74.2089 364.931C67.301 362.245 60.3194 363.038 53.3335 364.532C52.3535 364.741 51.4159 365.142 50.4489 365.422C41.4578 368.026 41.4318 368.028 40.2046 358.853C38.4995 346.098 37.1439 333.316 38.6521 320.442C40.2835 306.515 45.5054 293.703 51.396 281.162C54.4479 274.665 58.022 268.413 61.3315 262.035C61.9829 260.78 62.5084 259.462 64.014 258.977C64.0175 258.977 64.0522 259.008 64.0522 259.008Z" fill="black"/>
<path d="M232.997 230.443C244.659 234.607 255.317 240.451 264.212 249.205C265.656 250.625 266.576 250.898 267.812 248.866C277.461 232.997 291.25 224.691 310.19 225.936C310.41 225.95 310.649 225.671 311.475 225.161C298.645 208.96 279.74 203.098 261.556 194.878C266.94 194.023 271.277 196.314 275.597 197.442C290.164 201.248 304.075 206.738 316.086 216.227C318.781 218.357 320.832 222.842 323.714 222.559C326.049 222.329 327.787 217.758 330.116 215.439C340.249 205.347 352.521 198.373 365.176 192.068C383.378 182.997 402.092 175.13 421.5 168.981C423.557 168.33 425.26 166.239 428.249 167.687C421.406 170.853 414.788 173.75 408.315 176.94C388.148 186.883 368.119 197.077 350.98 211.979C341.387 220.319 336.033 230.536 337.401 243.568C337.698 246.391 336.611 245.897 334.724 245.286C328.833 243.378 322.91 241.796 316.662 241.13C296.919 239.025 280.29 247.688 271.581 265.571C269.659 269.521 268.906 268.464 267.087 265.76C256.831 250.515 243.573 238.647 227.026 230.546C228.236 228.53 229.98 230.551 231.378 229.971C231.794 230.092 232.21 230.213 232.624 230.334C232.622 230.334 232.756 230.628 232.756 230.628L232.997 230.443Z" fill="black"/>
<path d="M349.556 385.64V409.158C349.556 411.824 348.909 414.135 347.615 416.093C346.321 418.034 344.465 419.515 342.046 420.535C339.627 421.555 336.767 422.065 333.467 422.065C328.479 422.065 324.551 420.93 321.682 418.66C318.813 416.389 317.35 413.28 317.294 409.331V385.64H327.223V409.504C327.335 413.436 329.417 415.402 333.467 415.402C335.511 415.402 337.058 414.908 338.108 413.921C339.158 412.934 339.683 411.33 339.683 409.109V385.64H349.556Z" fill="black"/>
<path d="M387.893 392.327H375.601V421.572H365.729V392.327H353.662V385.64H387.893V392.327Z" fill="black"/>
<path d="M417.877 407.258H401.957V421.572H392.084V385.64H419.48V392.327H401.957V400.595H417.877V407.258Z" fill="black"/>
<path d="M439.478 411.799L447.635 385.64H458.661L444.879 421.572H434.078L420.408 385.64H431.349L439.478 411.799Z" fill="black"/>
<path d="M139.468 232.864C141.8 239.911 147.061 244.714 152.635 248.981C160.741 255.186 169.251 260.862 177.595 266.755C180.322 268.681 182.879 270.804 184.792 273.561C186.366 275.829 187.263 278.437 185.104 280.696C182.981 282.918 180.176 283.753 177.206 282.218C172.233 279.648 168.709 275.339 164.784 271.539C159.922 266.832 155.061 262.137 149.551 258.182C148.152 257.178 146.677 256.236 145.129 255.489C138.11 252.104 134.766 253.306 131.216 260.455C129.165 260.003 129.23 258.249 129.189 256.803C129.071 252.619 129.182 248.43 129.099 244.245C128.953 236.83 124.555 233.564 117.325 235.519C108.31 237.956 101.86 244.161 95.5987 250.576C93.2223 253.011 91.0437 255.64 88.4566 257.96C90.055 246.881 94.094 237.239 103.886 230.819C105.259 229.919 107.705 229.506 107.374 227.489C107.065 225.608 104.915 224.799 103.126 224.18C94.0567 221.047 84.8791 219.956 75.4422 222.86C81.2565 217.03 88.6674 215.114 96.4191 214.144C100.427 213.643 104.48 213.512 108.508 213.174C111.342 212.935 113.578 211.544 114.448 208.859C115.328 206.143 113.572 204.229 111.597 202.591C106.768 198.589 101.246 195.816 95.4764 193.486C95.0332 192.769 94.4435 192.37 93.5614 192.615C93.2345 192.438 92.9075 192.26 92.5806 192.085C92.5996 191.625 92.617 191.163 92.6352 190.702C102.615 192.003 112.193 195.377 122.235 196.394C125.832 196.758 129.391 197.416 132.939 196.135C136.313 194.917 136.994 193.139 134.751 190.373C133.22 188.483 131.253 186.95 129.509 185.228C115.629 171.513 105.057 155.772 100.325 136.606C98.7487 130.218 98.1762 123.654 99.197 117C101.704 124.009 103.232 131.289 106.309 138.11C114.908 157.172 128.52 171.216 147.508 179.904C150.452 181.251 154.395 183.756 157.115 180.576C159.643 177.619 157.097 173.898 155.681 170.871C150.281 159.316 147.382 147.254 147.44 134.481C147.46 129.848 148.365 125.387 150.199 120.901C150.708 125.369 151.068 129.861 151.753 134.303C154.473 151.932 161.703 167.794 172.657 181.597C180.291 191.215 185.299 200.984 185.396 213.595C185.487 225.358 192.187 234.4 200.744 242.006C205.602 246.323 210.964 249.926 216.627 253.133C222.235 256.308 224.246 263.319 221.679 269.777C219.077 276.323 207.682 288 200.552 291.355C200.619 275.65 191.097 266.555 178.758 259.238C166.279 251.839 153.04 245.514 142.895 234.697C142.428 234.198 142.147 233.525 141.781 232.936C141.232 231.117 140.135 229.68 138.665 227.983C138.399 230.058 138.234 231.59 139.468 232.864ZM172.046 229.735C171.618 227.133 169.635 226.395 167.514 225.767C161.689 224.043 157.091 220.899 155.086 214.835C154.872 214.188 154.542 213.332 154.788 212.831C155.275 211.842 156.266 212.302 157.072 212.567C159.265 213.286 161.45 214.024 163.916 214.848C160.207 206.592 151.225 202.549 142.825 205.39C146.257 207.411 147.806 210.731 148.511 213.971C150.511 223.178 162.273 229.246 172.046 229.735ZM204.936 273.843C205.2 268.562 203.89 264.348 202.791 260.193C202.312 258.382 200.261 258.754 198.698 259.31C197.257 259.823 196.45 260.918 197.196 262.291C199.257 266.086 200.972 270.144 204.936 273.843ZM211.581 268.565C212.232 269.417 210.762 271.482 213.065 271.292C215.335 271.104 218.289 263.46 217.004 261.455C216.384 260.487 215.648 259.5 214.298 259.759C213.01 260.005 213.127 261.213 212.924 262.156C212.474 264.25 212.044 266.348 211.581 268.565Z" stroke="#39B54A" stroke-opacity="0.7" stroke-width="8" stroke-linejoin="round" mask="url(#path-1-outside-1)"/>
<path d="M381.84 469.868C349.838 466.252 321.196 454.633 296.009 434.637C298.708 434.577 299.138 434.819 302.287 436.788C325.189 451.111 349.945 459.671 377.049 461.388C399.68 462.821 421.701 459.971 443.14 452.803C453.383 449.379 463.346 445.211 472.746 439.752C475.634 438.074 475.07 436.992 472.936 435.602C469.661 433.468 466.274 431.535 462.011 430.937C482.22 427.877 498.459 417.862 512.1 402.952C512.156 417.712 498.188 451.375 482.047 463.363C482.87 458.731 483.885 454.503 483.228 450.113C482.836 447.493 482.41 446.357 479.624 448.157C456.173 463.318 430.408 472.664 403.117 477.844C370.351 484.064 337.583 483.604 305.053 476.183C290.002 472.749 275.396 467.764 261.483 460.938C260.321 460.368 259.093 459.933 257.928 459.37C255.609 458.249 255.066 459.463 255.222 461.446C255.509 465.08 256.717 468.484 257.991 471.861C258.332 472.766 259.251 473.744 258.037 474.487C257.17 475.018 256.42 474.079 255.781 473.582C249.806 468.935 246.662 462.505 244.837 455.403C244.083 452.466 242.52 450.771 239.943 449.298C235.704 446.876 231.557 444.199 227.726 441.181C224.425 438.581 223.08 440.454 222.127 443.097C220.106 448.704 220.898 454.489 221.454 460.246C221.734 463.153 223.079 466.062 221.637 469.44C215.847 465.305 213.052 459.506 210.788 453.431C207.826 445.479 206.738 437.187 207.249 428.733C207.42 425.91 206.553 423.803 204.641 421.788C199.468 416.333 193.608 411.645 188.03 406.642C187.068 405.78 185.913 405.154 185.91 403.405C190.38 403.535 194.052 405.779 197.596 407.712C217.571 418.601 237.352 429.844 257.278 440.823C283.254 455.135 310.72 465.098 340.215 469.272C354.032 471.226 367.83 471.301 381.84 469.868ZM490.727 426.163C484.88 428.209 480.28 429.818 475.68 431.428C477.96 432.248 478.608 436.24 481.247 434.906C484.717 433.153 488.001 430.797 490.727 426.163Z" stroke="#39B54A" stroke-opacity="0.7" stroke-width="8" stroke-linejoin="round" mask="url(#path-1-outside-1)"/>
<path d="M266.934 411.386C244.076 404.256 221.766 395.749 200.453 384.769C180.647 374.565 161.835 362.997 147.468 345.453C138.208 334.146 131.022 321.566 124.733 308.43C121.687 302.067 118.872 295.581 115.114 289.579C108.897 279.648 100.994 278.552 92.3065 286.592C87.4592 291.079 83.0092 296.001 78.0892 300.402C72.8282 305.109 66.0261 303.008 63.9403 296.141C61.9829 289.697 63.047 283.231 64.7452 276.934C67.9853 264.917 73.3208 253.733 78.9313 242.681C79.3736 241.81 80.1038 241.085 81.3493 239.43C80.6268 244.092 79.9677 247.777 79.502 251.487C78.711 257.783 77.6304 264.078 78.7639 270.455C79.149 272.621 79.4889 275.068 81.7005 275.928C84.3639 276.964 86.4853 274.96 88.134 273.292C91.9717 269.408 95.5432 265.257 99.145 261.146C105.535 253.855 110.87 253.919 116.837 261.474C123.356 269.73 126.636 279.705 131.102 289.011C148.934 326.17 173.662 357.122 209.188 378.963C228.375 390.758 248.16 401.259 268.945 409.896C268.789 411.088 267.711 411.033 266.934 411.386Z" stroke="#39B54A" stroke-opacity="0.7" stroke-width="8" stroke-linejoin="round" mask="url(#path-1-outside-1)"/>
<path d="M447.487 147.249C440.63 151.383 433.471 154.535 426.398 157.812C410.979 164.955 395.309 171.491 379.139 176.786C359.86 183.1 340.294 187.806 319.833 187.549C304.321 187.354 289.099 184.861 273.94 181.78C266.877 180.344 259.778 178.999 252.636 178.057C243.487 176.851 237.68 181.131 235.658 190.155C234.65 194.652 233.83 199.191 232.971 203.72C230.584 216.292 214.811 219.132 206.116 214.815C199.815 211.687 195.056 206.916 190.404 201.381C193.082 200.557 194.431 202.443 195.969 203.375C199.479 205.503 203.11 207.15 207.245 207.398C212.35 207.706 215.708 205.611 217.872 200.923C220.286 195.696 220.935 190.17 221.01 184.47C221.094 178.132 220.469 171.753 221.796 165.464C223.427 157.728 227.841 154.595 235.598 156.351C249.092 159.407 262.471 162.992 276.093 165.462C306.66 171.005 337.236 173.5 368.167 167.613C392.587 162.965 416.331 156.073 439.903 148.402C441.4 147.914 442.931 147.404 444.481 147.252C445.355 147.165 446.213 146.175 447.487 147.249Z" stroke="#39B54A" stroke-opacity="0.7" stroke-width="8" stroke-linejoin="round" mask="url(#path-1-outside-1)"/>
<path d="M64.0522 259.008C63.0626 265.177 59.9847 270.645 58.1313 276.54C51.2182 298.534 49.5331 320.911 51.997 343.725C52.3058 346.584 53.2849 347.363 56.3377 347.228C68.7468 346.682 80.5349 348.525 90.4288 359.293C91.8121 340.298 93.9673 322.652 106.049 308.208C104.113 314.468 102.7 320.797 101.668 327.268C99.6966 339.626 101.057 351.733 103.344 363.845C104.043 367.545 105.639 368.635 109.833 367.992C122.525 366.047 134.783 369.056 146.874 372.705C175.888 381.46 202.529 395.435 228.905 409.989C228.597 410.349 228.291 410.709 227.985 411.07C207.951 402.583 187.685 394.734 166.74 388.737C157.292 386.032 147.687 384.05 137.977 382.63C121.072 380.158 106.106 383.489 94.5528 398.626C93.8477 394.879 93.4088 392.014 92.7609 389.197C90.2588 378.31 85.3197 369.251 74.2089 364.931C67.301 362.245 60.3194 363.038 53.3335 364.532C52.3535 364.741 51.4159 365.142 50.4489 365.422C41.4578 368.026 41.4318 368.028 40.2046 358.853C38.4995 346.098 37.1439 333.316 38.6521 320.442C40.2835 306.515 45.5054 293.703 51.396 281.162C54.4479 274.665 58.022 268.413 61.3315 262.035C61.9829 260.78 62.5084 259.462 64.014 258.977C64.0175 258.977 64.0522 259.008 64.0522 259.008Z" stroke="#39B54A" stroke-opacity="0.7" stroke-width="8" stroke-linejoin="round" mask="url(#path-1-outside-1)"/>
<path d="M232.997 230.443C244.659 234.607 255.317 240.451 264.212 249.205C265.656 250.625 266.576 250.898 267.812 248.866C277.461 232.997 291.25 224.691 310.19 225.936C310.41 225.95 310.649 225.671 311.475 225.161C298.645 208.96 279.74 203.098 261.556 194.878C266.94 194.023 271.277 196.314 275.597 197.442C290.164 201.248 304.075 206.738 316.086 216.227C318.781 218.357 320.832 222.842 323.714 222.559C326.049 222.329 327.787 217.758 330.116 215.439C340.249 205.347 352.521 198.373 365.176 192.068C383.378 182.997 402.092 175.13 421.5 168.981C423.557 168.33 425.26 166.239 428.249 167.687C421.406 170.853 414.788 173.75 408.315 176.94C388.148 186.883 368.119 197.077 350.98 211.979C341.387 220.319 336.033 230.536 337.401 243.568C337.698 246.391 336.611 245.897 334.724 245.286C328.833 243.378 322.91 241.796 316.662 241.13C296.919 239.025 280.29 247.688 271.581 265.571C269.659 269.521 268.906 268.464 267.087 265.76C256.831 250.515 243.573 238.647 227.026 230.546C228.236 228.53 229.98 230.551 231.378 229.971C231.794 230.092 232.21 230.213 232.624 230.334C232.622 230.334 232.756 230.628 232.756 230.628L232.997 230.443Z" stroke="#39B54A" stroke-opacity="0.7" stroke-width="8" stroke-linejoin="round" mask="url(#path-1-outside-1)"/>
<path d="M349.556 385.64V409.158C349.556 411.824 348.909 414.135 347.615 416.093C346.321 418.034 344.465 419.515 342.046 420.535C339.627 421.555 336.767 422.065 333.467 422.065C328.479 422.065 324.551 420.93 321.682 418.66C318.813 416.389 317.35 413.28 317.294 409.331V385.64H327.223V409.504C327.335 413.436 329.417 415.402 333.467 415.402C335.511 415.402 337.058 414.908 338.108 413.921C339.158 412.934 339.683 411.33 339.683 409.109V385.64H349.556Z" stroke="#39B54A" stroke-opacity="0.7" stroke-width="8" stroke-linejoin="round" mask="url(#path-1-outside-1)"/>
<path d="M387.893 392.327H375.601V421.572H365.729V392.327H353.662V385.64H387.893V392.327Z" stroke="#39B54A" stroke-opacity="0.7" stroke-width="8" stroke-linejoin="round" mask="url(#path-1-outside-1)"/>
<path d="M417.877 407.258H401.957V421.572H392.084V385.64H419.48V392.327H401.957V400.595H417.877V407.258Z" stroke="#39B54A" stroke-opacity="0.7" stroke-width="8" stroke-linejoin="round" mask="url(#path-1-outside-1)"/>
<path d="M439.478 411.799L447.635 385.64H458.661L444.879 421.572H434.078L420.408 385.64H431.349L439.478 411.799Z" stroke="#39B54A" stroke-opacity="0.7" stroke-width="8" stroke-linejoin="round" mask="url(#path-1-outside-1)"/>
<mask id="path-2-outside-2" maskUnits="userSpaceOnUse" x="218.76" y="284.504" width="347" height="95" fill="black">
<rect fill="white" x="218.76" y="284.504" width="347" height="95"/>
<path d="M222.76 374.073V289.721H233.403C237.215 289.721 240.111 291.71 242.092 295.688C244.086 299.666 245.083 305.44 245.083 313.01C245.083 317.375 244.73 321.102 244.025 324.192C243.32 327.281 242.282 329.56 240.912 331.028C242.458 332.187 243.645 334.349 244.473 337.517C245.3 340.684 245.714 344.546 245.714 349.104C245.714 357.369 244.791 363.587 242.947 367.758C241.115 371.891 238.395 373.996 234.787 374.073H222.76ZM229.903 338.212V358.431H234.583C235.872 358.431 236.862 357.601 237.554 355.94C238.246 354.24 238.592 351.865 238.592 348.814C238.592 341.784 237.364 338.25 234.909 338.212H229.903ZM229.903 324.887H233.627C235.187 324.848 236.299 324.037 236.964 322.454C237.629 320.87 237.961 318.533 237.961 315.444C237.961 311.89 237.602 309.341 236.883 307.796C236.164 306.213 235.004 305.421 233.403 305.421H229.903V324.887Z"/>
<path d="M256.804 358.431H269.237V374.073H249.662V289.721H256.804V358.431Z"/>
<path d="M289.484 358.315H279.697L277.987 374.073H270.356L281.223 289.721H287.938L298.886 374.073H291.214L289.484 358.315ZM281.406 342.615H287.775L284.58 313.358L281.406 342.615Z"/>
<path d="M324.586 345.512C324.491 351.382 323.935 356.577 322.918 361.096C321.9 365.576 320.469 369.052 318.624 371.524C316.793 373.996 314.697 375.232 312.336 375.232C308.443 375.232 305.377 371.621 303.139 364.398C300.9 357.176 299.781 346.979 299.781 333.809V329.637C299.781 321.372 300.283 314.15 301.287 307.97C302.304 301.752 303.763 296.962 305.662 293.602C307.561 290.203 309.759 288.504 312.255 288.504C315.85 288.504 318.739 291.208 320.924 296.615C323.108 301.983 324.349 309.399 324.647 318.862H317.525C317.471 313.725 317.017 310.036 316.162 307.796C315.307 305.556 314.005 304.436 312.255 304.436C310.478 304.436 309.175 306.328 308.348 310.114C307.52 313.899 307.086 319.943 307.046 328.247V334.214C307.046 343.213 307.439 349.644 308.226 353.507C309.026 357.369 310.396 359.3 312.336 359.3C313.978 359.3 315.233 358.199 316.101 355.998C316.969 353.796 317.43 350.301 317.485 345.512H324.586Z"/>
<path d="M338.037 342.673L335.107 351.826V374.073H327.964V289.721H335.107V326.915L337.589 316.197L343.979 289.721H352.81L342.799 327.03L352.81 374.073H344.345L338.037 342.673Z"/>
<path d="M364.368 345.28H352.139V330.159H364.368V345.28Z"/>
<path d="M370.046 374.073V289.721H379.589C382.208 289.721 384.561 291.42 386.651 294.819C388.74 298.179 390.368 302.949 391.534 309.129C392.715 315.27 393.311 322.164 393.325 329.811V333.693C393.325 341.418 392.748 348.35 391.595 354.491C390.456 360.594 388.841 365.383 386.752 368.859C384.677 372.297 382.357 374.035 379.793 374.073H370.046ZM377.188 305.421V358.431H379.671C381.719 358.431 383.293 356.365 384.392 352.232C385.491 348.061 386.04 341.881 386.04 333.693V330.043C386.04 321.894 385.491 315.752 384.392 311.62C383.293 307.487 381.692 305.421 379.589 305.421H377.188Z"/>
<path d="M407.997 344.295H404.13V374.073H396.988V289.721H408.648C412.161 289.721 414.908 291.941 416.889 296.383C418.87 300.825 419.86 307.101 419.86 315.212C419.86 321.082 419.439 325.949 418.598 329.811C417.771 333.674 416.468 336.802 414.691 339.197L420.877 373.204V374.073H413.226L407.997 344.295ZM404.13 328.595H408.648C410.004 328.595 411.022 327.59 411.7 325.582C412.392 323.535 412.738 320.696 412.738 317.066C412.738 313.435 412.392 310.596 411.7 308.549C411.008 306.464 409.991 305.421 408.648 305.421H404.13V328.595Z"/>
<path d="M441.003 358.315H431.215L429.505 374.073H421.875L432.741 289.721H439.456L450.404 374.073H442.732L441.003 358.315ZM432.924 342.615H439.293L436.098 313.358L432.924 342.615Z"/>
<path d="M476.389 363.645C475.29 367.121 473.683 369.921 471.567 372.046C469.45 374.17 467.131 375.232 464.607 375.232C460.727 375.232 457.628 371.853 455.308 365.093C452.988 358.334 451.747 348.93 451.584 336.879L451.564 329.58C451.564 321.276 452.079 314.034 453.11 307.854C454.141 301.636 455.613 296.866 457.526 293.544C459.452 290.184 461.677 288.504 464.2 288.504C467.89 288.504 470.753 290.918 472.788 295.746C474.836 300.535 476.03 307.7 476.369 317.239H469.491C469.247 312.527 468.718 309.167 467.904 307.159C467.09 305.15 465.937 304.146 464.444 304.146C462.654 304.146 461.27 306.309 460.293 310.635C459.317 314.961 458.821 321.14 458.808 329.174V334.272C458.808 342.692 459.31 349.026 460.314 353.275C461.331 357.485 462.925 359.59 465.096 359.59C466.954 359.59 468.338 358.412 469.247 356.056V342.962H464.282V329H476.389V363.645Z"/>
<path d="M505.631 333.635C505.631 341.862 505.095 349.142 504.023 355.476C502.951 361.811 501.425 366.696 499.445 370.134C497.478 373.533 495.232 375.232 492.709 375.232C490.186 375.232 487.947 373.591 485.994 370.308C484.04 366.986 482.514 362.255 481.415 356.114C480.33 349.973 479.76 342.924 479.706 334.967V330.217C479.706 321.951 480.235 314.671 481.293 308.375C482.365 302.041 483.891 297.155 485.872 293.718C487.866 290.281 490.132 288.562 492.668 288.562C495.178 288.562 497.416 290.261 499.384 293.66C501.351 297.059 502.877 301.906 503.962 308.202C505.061 314.459 505.617 321.643 505.631 329.753V333.635ZM498.366 330.101C498.366 321.72 497.871 315.366 496.881 311.04C495.904 306.676 494.5 304.494 492.668 304.494C489.087 304.494 487.195 312.141 486.991 327.436L486.971 333.635C486.971 341.9 487.452 348.254 488.415 352.695C489.379 357.137 490.81 359.358 492.709 359.358C494.513 359.358 495.904 357.176 496.881 352.811C497.857 348.447 498.353 342.171 498.366 333.983V330.101Z"/>
<path d="M534.058 374.073H526.956L516.456 321.585V374.073H509.314V289.721H516.456L526.936 342.209V289.721H534.058V374.073Z"/>
<path d="M553.858 351.653C553.858 348.679 553.485 346.361 552.738 344.7C552.006 343.04 550.71 341.321 548.852 339.544C546.993 337.768 545.474 336.049 544.294 334.388C540.454 329.02 538.535 321.643 538.535 312.257C538.535 307.584 539.01 303.47 539.959 299.917C540.922 296.325 542.279 293.544 544.029 291.574C545.779 289.566 547.746 288.562 549.93 288.562C552.06 288.562 553.966 289.643 555.648 291.806C557.344 293.969 558.66 297.059 559.596 301.076C560.532 305.054 561 309.611 561 314.748H553.878C553.878 311.311 553.505 308.646 552.759 306.753C552.026 304.861 551.029 303.915 549.767 303.915C548.492 303.915 547.482 304.726 546.735 306.348C546.003 307.931 545.637 309.959 545.637 312.431C545.637 314.594 546.044 316.564 546.858 318.34C547.672 320.078 549.103 321.894 551.151 323.786C553.2 325.64 554.882 327.648 556.198 329.811C559.399 335.064 561 342.306 561 351.537C561 358.914 560.023 364.707 558.07 368.917C556.116 373.127 553.437 375.232 550.032 375.232C547.631 375.232 545.453 374.015 543.5 371.582C541.56 369.11 540.095 365.75 539.105 361.502C538.128 357.214 537.64 352.29 537.64 346.728H544.802C544.802 351.247 545.209 354.588 546.023 356.751C546.851 358.875 548.187 359.937 550.032 359.937C551.212 359.937 552.141 359.223 552.82 357.794C553.512 356.326 553.858 354.279 553.858 351.653Z"/>
</mask>
<path d="M222.76 374.073V289.721H233.403C237.215 289.721 240.111 291.71 242.092 295.688C244.086 299.666 245.083 305.44 245.083 313.01C245.083 317.375 244.73 321.102 244.025 324.192C243.32 327.281 242.282 329.56 240.912 331.028C242.458 332.187 243.645 334.349 244.473 337.517C245.3 340.684 245.714 344.546 245.714 349.104C245.714 357.369 244.791 363.587 242.947 367.758C241.115 371.891 238.395 373.996 234.787 374.073H222.76ZM229.903 338.212V358.431H234.583C235.872 358.431 236.862 357.601 237.554 355.94C238.246 354.24 238.592 351.865 238.592 348.814C238.592 341.784 237.364 338.25 234.909 338.212H229.903ZM229.903 324.887H233.627C235.187 324.848 236.299 324.037 236.964 322.454C237.629 320.87 237.961 318.533 237.961 315.444C237.961 311.89 237.602 309.341 236.883 307.796C236.164 306.213 235.004 305.421 233.403 305.421H229.903V324.887Z" fill="#BCBDBF"/>
<path d="M256.804 358.431H269.237V374.073H249.662V289.721H256.804V358.431Z" fill="#BCBDBF"/>
<path d="M289.484 358.315H279.697L277.987 374.073H270.356L281.223 289.721H287.938L298.886 374.073H291.214L289.484 358.315ZM281.406 342.615H287.775L284.58 313.358L281.406 342.615Z" fill="#BCBDBF"/>
<path d="M324.586 345.512C324.491 351.382 323.935 356.577 322.918 361.096C321.9 365.576 320.469 369.052 318.624 371.524C316.793 373.996 314.697 375.232 312.336 375.232C308.443 375.232 305.377 371.621 303.139 364.398C300.9 357.176 299.781 346.979 299.781 333.809V329.637C299.781 321.372 300.283 314.15 301.287 307.97C302.304 301.752 303.763 296.962 305.662 293.602C307.561 290.203 309.759 288.504 312.255 288.504C315.85 288.504 318.739 291.208 320.924 296.615C323.108 301.983 324.349 309.399 324.647 318.862H317.525C317.471 313.725 317.017 310.036 316.162 307.796C315.307 305.556 314.005 304.436 312.255 304.436C310.478 304.436 309.175 306.328 308.348 310.114C307.52 313.899 307.086 319.943 307.046 328.247V334.214C307.046 343.213 307.439 349.644 308.226 353.507C309.026 357.369 310.396 359.3 312.336 359.3C313.978 359.3 315.233 358.199 316.101 355.998C316.969 353.796 317.43 350.301 317.485 345.512H324.586Z" fill="#BCBDBF"/>
<path d="M338.037 342.673L335.107 351.826V374.073H327.964V289.721H335.107V326.915L337.589 316.197L343.979 289.721H352.81L342.799 327.03L352.81 374.073H344.345L338.037 342.673Z" fill="#BCBDBF"/>
<path d="M364.368 345.28H352.139V330.159H364.368V345.28Z" fill="#BCBDBF"/>
<path d="M370.046 374.073V289.721H379.589C382.208 289.721 384.561 291.42 386.651 294.819C388.74 298.179 390.368 302.949 391.534 309.129C392.715 315.27 393.311 322.164 393.325 329.811V333.693C393.325 341.418 392.748 348.35 391.595 354.491C390.456 360.594 388.841 365.383 386.752 368.859C384.677 372.297 382.357 374.035 379.793 374.073H370.046ZM377.188 305.421V358.431H379.671C381.719 358.431 383.293 356.365 384.392 352.232C385.491 348.061 386.04 341.881 386.04 333.693V330.043C386.04 321.894 385.491 315.752 384.392 311.62C383.293 307.487 381.692 305.421 379.589 305.421H377.188Z" fill="#BCBDBF"/>
<path d="M407.997 344.295H404.13V374.073H396.988V289.721H408.648C412.161 289.721 414.908 291.941 416.889 296.383C418.87 300.825 419.86 307.101 419.86 315.212C419.86 321.082 419.439 325.949 418.598 329.811C417.771 333.674 416.468 336.802 414.691 339.197L420.877 373.204V374.073H413.226L407.997 344.295ZM404.13 328.595H408.648C410.004 328.595 411.022 327.59 411.7 325.582C412.392 323.535 412.738 320.696 412.738 317.066C412.738 313.435 412.392 310.596 411.7 308.549C411.008 306.464 409.991 305.421 408.648 305.421H404.13V328.595Z" fill="#BCBDBF"/>
<path d="M441.003 358.315H431.215L429.505 374.073H421.875L432.741 289.721H439.456L450.404 374.073H442.732L441.003 358.315ZM432.924 342.615H439.293L436.098 313.358L432.924 342.615Z" fill="#BCBDBF"/>
<path d="M476.389 363.645C475.29 367.121 473.683 369.921 471.567 372.046C469.45 374.17 467.131 375.232 464.607 375.232C460.727 375.232 457.628 371.853 455.308 365.093C452.988 358.334 451.747 348.93 451.584 336.879L451.564 329.58C451.564 321.276 452.079 314.034 453.11 307.854C454.141 301.636 455.613 296.866 457.526 293.544C459.452 290.184 461.677 288.504 464.2 288.504C467.89 288.504 470.753 290.918 472.788 295.746C474.836 300.535 476.03 307.7 476.369 317.239H469.491C469.247 312.527 468.718 309.167 467.904 307.159C467.09 305.15 465.937 304.146 464.444 304.146C462.654 304.146 461.27 306.309 460.293 310.635C459.317 314.961 458.821 321.14 458.808 329.174V334.272C458.808 342.692 459.31 349.026 460.314 353.275C461.331 357.485 462.925 359.59 465.096 359.59C466.954 359.59 468.338 358.412 469.247 356.056V342.962H464.282V329H476.389V363.645Z" fill="#BCBDBF"/>
<path d="M505.631 333.635C505.631 341.862 505.095 349.142 504.023 355.476C502.951 361.811 501.425 366.696 499.445 370.134C497.478 373.533 495.232 375.232 492.709 375.232C490.186 375.232 487.947 373.591 485.994 370.308C484.04 366.986 482.514 362.255 481.415 356.114C480.33 349.973 479.76 342.924 479.706 334.967V330.217C479.706 321.951 480.235 314.671 481.293 308.375C482.365 302.041 483.891 297.155 485.872 293.718C487.866 290.281 490.132 288.562 492.668 288.562C495.178 288.562 497.416 290.261 499.384 293.66C501.351 297.059 502.877 301.906 503.962 308.202C505.061 314.459 505.617 321.643 505.631 329.753V333.635ZM498.366 330.101C498.366 321.72 497.871 315.366 496.881 311.04C495.904 306.676 494.5 304.494 492.668 304.494C489.087 304.494 487.195 312.141 486.991 327.436L486.971 333.635C486.971 341.9 487.452 348.254 488.415 352.695C489.379 357.137 490.81 359.358 492.709 359.358C494.513 359.358 495.904 357.176 496.881 352.811C497.857 348.447 498.353 342.171 498.366 333.983V330.101Z" fill="#BCBDBF"/>
<path d="M534.058 374.073H526.956L516.456 321.585V374.073H509.314V289.721H516.456L526.936 342.209V289.721H534.058V374.073Z" fill="#BCBDBF"/>
<path d="M553.858 351.653C553.858 348.679 553.485 346.361 552.738 344.7C552.006 343.04 550.71 341.321 548.852 339.544C546.993 337.768 545.474 336.049 544.294 334.388C540.454 329.02 538.535 321.643 538.535 312.257C538.535 307.584 539.01 303.47 539.959 299.917C540.922 296.325 542.279 293.544 544.029 291.574C545.779 289.566 547.746 288.562 549.93 288.562C552.06 288.562 553.966 289.643 555.648 291.806C557.344 293.969 558.66 297.059 559.596 301.076C560.532 305.054 561 309.611 561 314.748H553.878C553.878 311.311 553.505 308.646 552.759 306.753C552.026 304.861 551.029 303.915 549.767 303.915C548.492 303.915 547.482 304.726 546.735 306.348C546.003 307.931 545.637 309.959 545.637 312.431C545.637 314.594 546.044 316.564 546.858 318.34C547.672 320.078 549.103 321.894 551.151 323.786C553.2 325.64 554.882 327.648 556.198 329.811C559.399 335.064 561 342.306 561 351.537C561 358.914 560.023 364.707 558.07 368.917C556.116 373.127 553.437 375.232 550.032 375.232C547.631 375.232 545.453 374.015 543.5 371.582C541.56 369.11 540.095 365.75 539.105 361.502C538.128 357.214 537.64 352.29 537.64 346.728H544.802C544.802 351.247 545.209 354.588 546.023 356.751C546.851 358.875 548.187 359.937 550.032 359.937C551.212 359.937 552.141 359.223 552.82 357.794C553.512 356.326 553.858 354.279 553.858 351.653Z" fill="#BCBDBF"/>
<path d="M222.76 374.073V289.721H233.403C237.215 289.721 240.111 291.71 242.092 295.688C244.086 299.666 245.083 305.44 245.083 313.01C245.083 317.375 244.73 321.102 244.025 324.192C243.32 327.281 242.282 329.56 240.912 331.028C242.458 332.187 243.645 334.349 244.473 337.517C245.3 340.684 245.714 344.546 245.714 349.104C245.714 357.369 244.791 363.587 242.947 367.758C241.115 371.891 238.395 373.996 234.787 374.073H222.76ZM229.903 338.212V358.431H234.583C235.872 358.431 236.862 357.601 237.554 355.94C238.246 354.24 238.592 351.865 238.592 348.814C238.592 341.784 237.364 338.25 234.909 338.212H229.903ZM229.903 324.887H233.627C235.187 324.848 236.299 324.037 236.964 322.454C237.629 320.87 237.961 318.533 237.961 315.444C237.961 311.89 237.602 309.341 236.883 307.796C236.164 306.213 235.004 305.421 233.403 305.421H229.903V324.887Z" stroke="#39B54A" stroke-opacity="0.7" stroke-width="8" stroke-linejoin="round" mask="url(#path-2-outside-2)"/>
<path d="M256.804 358.431H269.237V374.073H249.662V289.721H256.804V358.431Z" stroke="#39B54A" stroke-opacity="0.7" stroke-width="8" stroke-linejoin="round" mask="url(#path-2-outside-2)"/>
<path d="M289.484 358.315H279.697L277.987 374.073H270.356L281.223 289.721H287.938L298.886 374.073H291.214L289.484 358.315ZM281.406 342.615H287.775L284.58 313.358L281.406 342.615Z" stroke="#39B54A" stroke-opacity="0.7" stroke-width="8" stroke-linejoin="round" mask="url(#path-2-outside-2)"/>
<path d="M324.586 345.512C324.491 351.382 323.935 356.577 322.918 361.096C321.9 365.576 320.469 369.052 318.624 371.524C316.793 373.996 314.697 375.232 312.336 375.232C308.443 375.232 305.377 371.621 303.139 364.398C300.9 357.176 299.781 346.979 299.781 333.809V329.637C299.781 321.372 300.283 314.15 301.287 307.97C302.304 301.752 303.763 296.962 305.662 293.602C307.561 290.203 309.759 288.504 312.255 288.504C315.85 288.504 318.739 291.208 320.924 296.615C323.108 301.983 324.349 309.399 324.647 318.862H317.525C317.471 313.725 317.017 310.036 316.162 307.796C315.307 305.556 314.005 304.436 312.255 304.436C310.478 304.436 309.175 306.328 308.348 310.114C307.52 313.899 307.086 319.943 307.046 328.247V334.214C307.046 343.213 307.439 349.644 308.226 353.507C309.026 357.369 310.396 359.3 312.336 359.3C313.978 359.3 315.233 358.199 316.101 355.998C316.969 353.796 317.43 350.301 317.485 345.512H324.586Z" stroke="#39B54A" stroke-opacity="0.7" stroke-width="8" stroke-linejoin="round" mask="url(#path-2-outside-2)"/>
<path d="M338.037 342.673L335.107 351.826V374.073H327.964V289.721H335.107V326.915L337.589 316.197L343.979 289.721H352.81L342.799 327.03L352.81 374.073H344.345L338.037 342.673Z" stroke="#39B54A" stroke-opacity="0.7" stroke-width="8" stroke-linejoin="round" mask="url(#path-2-outside-2)"/>
<path d="M364.368 345.28H352.139V330.159H364.368V345.28Z" stroke="#39B54A" stroke-opacity="0.7" stroke-width="8" stroke-linejoin="round" mask="url(#path-2-outside-2)"/>
<path d="M370.046 374.073V289.721H379.589C382.208 289.721 384.561 291.42 386.651 294.819C388.74 298.179 390.368 302.949 391.534 309.129C392.715 315.27 393.311 322.164 393.325 329.811V333.693C393.325 341.418 392.748 348.35 391.595 354.491C390.456 360.594 388.841 365.383 386.752 368.859C384.677 372.297 382.357 374.035 379.793 374.073H370.046ZM377.188 305.421V358.431H379.671C381.719 358.431 383.293 356.365 384.392 352.232C385.491 348.061 386.04 341.881 386.04 333.693V330.043C386.04 321.894 385.491 315.752 384.392 311.62C383.293 307.487 381.692 305.421 379.589 305.421H377.188Z" stroke="#39B54A" stroke-opacity="0.7" stroke-width="8" stroke-linejoin="round" mask="url(#path-2-outside-2)"/>
<path d="M407.997 344.295H404.13V374.073H396.988V289.721H408.648C412.161 289.721 414.908 291.941 416.889 296.383C418.87 300.825 419.86 307.101 419.86 315.212C419.86 321.082 419.439 325.949 418.598 329.811C417.771 333.674 416.468 336.802 414.691 339.197L420.877 373.204V374.073H413.226L407.997 344.295ZM404.13 328.595H408.648C410.004 328.595 411.022 327.59 411.7 325.582C412.392 323.535 412.738 320.696 412.738 317.066C412.738 313.435 412.392 310.596 411.7 308.549C411.008 306.464 409.991 305.421 408.648 305.421H404.13V328.595Z" stroke="#39B54A" stroke-opacity="0.7" stroke-width="8" stroke-linejoin="round" mask="url(#path-2-outside-2)"/>
<path d="M441.003 358.315H431.215L429.505 374.073H421.875L432.741 289.721H439.456L450.404 374.073H442.732L441.003 358.315ZM432.924 342.615H439.293L436.098 313.358L432.924 342.615Z" stroke="#39B54A" stroke-opacity="0.7" stroke-width="8" stroke-linejoin="round" mask="url(#path-2-outside-2)"/>
<path d="M476.389 363.645C475.29 367.121 473.683 369.921 471.567 372.046C469.45 374.17 467.131 375.232 464.607 375.232C460.727 375.232 457.628 371.853 455.308 365.093C452.988 358.334 451.747 348.93 451.584 336.879L451.564 329.58C451.564 321.276 452.079 314.034 453.11 307.854C454.141 301.636 455.613 296.866 457.526 293.544C459.452 290.184 461.677 288.504 464.2 288.504C467.89 288.504 470.753 290.918 472.788 295.746C474.836 300.535 476.03 307.7 476.369 317.239H469.491C469.247 312.527 468.718 309.167 467.904 307.159C467.09 305.15 465.937 304.146 464.444 304.146C462.654 304.146 461.27 306.309 460.293 310.635C459.317 314.961 458.821 321.14 458.808 329.174V334.272C458.808 342.692 459.31 349.026 460.314 353.275C461.331 357.485 462.925 359.59 465.096 359.59C466.954 359.59 468.338 358.412 469.247 356.056V342.962H464.282V329H476.389V363.645Z" stroke="#39B54A" stroke-opacity="0.7" stroke-width="8" stroke-linejoin="round" mask="url(#path-2-outside-2)"/>
<path d="M505.631 333.635C505.631 341.862 505.095 349.142 504.023 355.476C502.951 361.811 501.425 366.696 499.445 370.134C497.478 373.533 495.232 375.232 492.709 375.232C490.186 375.232 487.947 373.591 485.994 370.308C484.04 366.986 482.514 362.255 481.415 356.114C480.33 349.973 479.76 342.924 479.706 334.967V330.217C479.706 321.951 480.235 314.671 481.293 308.375C482.365 302.041 483.891 297.155 485.872 293.718C487.866 290.281 490.132 288.562 492.668 288.562C495.178 288.562 497.416 290.261 499.384 293.66C501.351 297.059 502.877 301.906 503.962 308.202C505.061 314.459 505.617 321.643 505.631 329.753V333.635ZM498.366 330.101C498.366 321.72 497.871 315.366 496.881 311.04C495.904 306.676 494.5 304.494 492.668 304.494C489.087 304.494 487.195 312.141 486.991 327.436L486.971 333.635C486.971 341.9 487.452 348.254 488.415 352.695C489.379 357.137 490.81 359.358 492.709 359.358C494.513 359.358 495.904 357.176 496.881 352.811C497.857 348.447 498.353 342.171 498.366 333.983V330.101Z" stroke="#39B54A" stroke-opacity="0.7" stroke-width="8" stroke-linejoin="round" mask="url(#path-2-outside-2)"/>
<path d="M534.058 374.073H526.956L516.456 321.585V374.073H509.314V289.721H516.456L526.936 342.209V289.721H534.058V374.073Z" stroke="#39B54A" stroke-opacity="0.7" stroke-width="8" stroke-linejoin="round" mask="url(#path-2-outside-2)"/>
<path d="M553.858 351.653C553.858 348.679 553.485 346.361 552.738 344.7C552.006 343.04 550.71 341.321 548.852 339.544C546.993 337.768 545.474 336.049 544.294 334.388C540.454 329.02 538.535 321.643 538.535 312.257C538.535 307.584 539.01 303.47 539.959 299.917C540.922 296.325 542.279 293.544 544.029 291.574C545.779 289.566 547.746 288.562 549.93 288.562C552.06 288.562 553.966 289.643 555.648 291.806C557.344 293.969 558.66 297.059 559.596 301.076C560.532 305.054 561 309.611 561 314.748H553.878C553.878 311.311 553.505 308.646 552.759 306.753C552.026 304.861 551.029 303.915 549.767 303.915C548.492 303.915 547.482 304.726 546.735 306.348C546.003 307.931 545.637 309.959 545.637 312.431C545.637 314.594 546.044 316.564 546.858 318.34C547.672 320.078 549.103 321.894 551.151 323.786C553.2 325.64 554.882 327.648 556.198 329.811C559.399 335.064 561 342.306 561 351.537C561 358.914 560.023 364.707 558.07 368.917C556.116 373.127 553.437 375.232 550.032 375.232C547.631 375.232 545.453 374.015 543.5 371.582C541.56 369.11 540.095 365.75 539.105 361.502C538.128 357.214 537.64 352.29 537.64 346.728H544.802C544.802 351.247 545.209 354.588 546.023 356.751C546.851 358.875 548.187 359.937 550.032 359.937C551.212 359.937 552.141 359.223 552.82 357.794C553.512 356.326 553.858 354.279 553.858 351.653Z" stroke="#39B54A" stroke-opacity="0.7" stroke-width="8" stroke-linejoin="round" mask="url(#path-2-outside-2)"/>
</svg>
